<svg width="500" height="500" viewBox="0 0 500 500" fill="none" xmlns="http://www.w3.org/2000/svg">
<g clip-path="url(#clip0_454_38)">
<path d="M250 195.309C207.302 195.309 172.566 230.082 172.566 272.823C172.566 315.564 207.302 350.337 250 350.337C292.698 350.337 327.434 315.564 327.434 272.823C327.434 230.082 292.698 195.309 250 195.309Z" fill="white"/>
<path d="M357.544 111.057L311.973 54H188.026L142.456 111.057H0V446H500V111.057H357.544ZM250 376.913C192.664 376.913 146.018 330.219 146.018 272.823C146.018 215.427 192.664 168.732 250 168.732C307.336 168.732 353.982 215.426 353.982 272.822C353.982 330.218 307.336 376.913 250 376.913ZM444.052 194.218C430.023 194.218 418.61 182.793 418.61 168.749C418.61 154.705 430.023 143.28 444.052 143.28C458.081 143.28 469.494 154.705 469.494 168.749C469.494 182.793 458.081 194.218 444.052 194.218Z" fill="#1E3A8F"/>
</g>
<defs>
<clipPath id="clip0_454_38">
<rect width="500" height="500" fill="white"/>
</clipPath>
</defs>
</svg>
