<svg width="178" height="55" viewBox="0 0 178 55" fill="none" xmlns="http://www.w3.org/2000/svg">
<path d="M20.5795 44.4832C20.9369 44.4832 21.2696 44.5105 21.5824 44.5627L23.8289 41.9138H24.8442L22.409 44.7489C23.1488 44.9797 23.7247 45.3745 24.1343 45.9331C24.5439 46.4916 24.8691 47.2364 25.1099 48.1723H24.0921C23.968 47.6187 23.8091 47.157 23.6179 46.787C23.4268 46.4171 23.186 46.1192 22.8956 45.8908C22.6051 45.6625 22.27 45.5036 21.8852 45.4092C21.5029 45.3149 21.0635 45.2652 20.5745 45.2553V48.1723H19.6709V41.9113H20.5795V44.4832Z" fill="white"/>
<path d="M25.153 48.2043H24.0756L24.0707 48.182C23.9465 47.6333 23.7877 47.1716 23.599 46.8041C23.4103 46.4392 23.1696 46.1413 22.8841 45.9179C22.5986 45.6944 22.2635 45.5331 21.8861 45.4412C21.5138 45.3494 21.0868 45.2997 20.6102 45.2898V48.2043H19.6445V41.8862H20.6102V44.4556C20.9503 44.4581 21.2755 44.4829 21.5734 44.5326L23.8175 41.8862H24.9097L22.4621 44.7362C23.1844 44.9695 23.7554 45.3667 24.16 45.9179C24.5696 46.4764 24.8998 47.2336 25.1406 48.1671L25.153 48.2043ZM24.1203 48.1472H25.076C24.8377 47.2361 24.515 46.4988 24.1129 45.9526C23.7082 45.404 23.1323 45.0092 22.4025 44.7784L22.3603 44.766L24.7831 41.9458H23.8423L21.5932 44.5971L21.5783 44.5947C21.2705 44.5425 20.9329 44.5152 20.5804 44.5152H20.5506V41.9482H19.6991V48.1497H20.5506V45.2327H20.5804C21.0719 45.2426 21.5138 45.2947 21.8986 45.3866C22.2833 45.4809 22.6284 45.6448 22.9188 45.8732C23.2093 46.1016 23.455 46.4069 23.6487 46.7793C23.8373 47.1442 23.9962 47.6035 24.1203 48.1472Z" fill="white"/>
<path d="M33.2035 45.0463C33.2035 45.518 33.1216 45.9549 32.9553 46.3571C32.789 46.7593 32.5606 47.1068 32.2677 47.3998C31.9723 47.6952 31.6222 47.9236 31.2102 48.0875C30.8006 48.2513 30.3488 48.3357 29.8597 48.3357C29.3781 48.3357 28.9313 48.2538 28.5217 48.0875C28.1121 47.9236 27.7596 47.6927 27.4642 47.3998C27.1688 47.1044 26.9404 46.7568 26.7766 46.3571C26.6103 45.9549 26.5283 45.518 26.5283 45.0463C26.5283 44.5746 26.6103 44.1377 26.7766 43.7355C26.9404 43.3334 27.1713 42.9858 27.4642 42.6929C27.7596 42.3974 28.1096 42.169 28.5217 42.0052C28.9313 41.8413 29.3781 41.7569 29.8597 41.7569C30.3488 41.7569 30.8006 41.8388 31.2102 42.0052C31.6198 42.1715 31.9723 42.3999 32.2677 42.6929C32.5631 42.9883 32.7915 43.3358 32.9553 43.7355C33.1216 44.1352 33.2035 44.5721 33.2035 45.0463ZM32.2404 45.0463C32.2404 44.6988 32.1858 44.3711 32.074 44.0632C31.9623 43.7554 31.8035 43.4873 31.5999 43.2614C31.3939 43.033 31.1456 42.8542 30.8502 42.7202C30.5548 42.5861 30.2271 42.5191 29.8597 42.5191C29.4948 42.5191 29.1671 42.5861 28.8767 42.7202C28.5863 42.8542 28.3405 43.0354 28.1345 43.2614C27.9284 43.4898 27.772 43.7554 27.6603 44.0632C27.5486 44.3711 27.494 44.6988 27.494 45.0463C27.494 45.3939 27.5486 45.7216 27.6603 46.0294C27.772 46.3373 27.9309 46.6054 28.1345 46.8313C28.3405 47.0597 28.5863 47.2384 28.8767 47.3675C29.1671 47.4966 29.4948 47.5612 29.8597 47.5612C30.2246 47.5612 30.5548 47.4966 30.8502 47.3675C31.1456 47.2384 31.3939 47.0597 31.5999 46.8313C31.8059 46.6029 31.9623 46.3373 32.074 46.0294C32.1858 45.7216 32.2404 45.3939 32.2404 45.0463Z" fill="white"/>
<path d="M29.8607 48.3653C29.3766 48.3653 28.9248 48.2809 28.5127 48.117C28.1006 47.9507 27.7432 47.7174 27.4478 47.4219C27.1524 47.1265 26.919 46.7715 26.7527 46.3693C26.5864 45.9671 26.502 45.5228 26.502 45.0486C26.502 44.5744 26.5864 44.1301 26.7527 43.7279C26.919 43.3257 27.1524 42.9707 27.4478 42.6753C27.7432 42.3798 28.1006 42.1465 28.5127 41.9802C28.9248 41.8138 29.3791 41.7294 29.8607 41.7294C30.3522 41.7294 30.8114 41.8138 31.221 41.9777C31.6331 42.144 31.9931 42.3774 32.2885 42.6728C32.5839 42.9682 32.8172 43.3232 32.9835 43.7254C33.1499 44.1276 33.2343 44.5719 33.2343 45.0461C33.2343 45.5203 33.1499 45.9647 32.9835 46.3668C32.8172 46.769 32.5839 47.124 32.2885 47.4194C31.9931 47.7149 31.6331 47.9482 31.2235 48.1146C30.8114 48.2809 30.3522 48.3653 29.8607 48.3653ZM29.8607 41.784C29.384 41.784 28.9397 41.866 28.5351 42.0298C28.1304 42.1937 27.7779 42.4221 27.4875 42.7125C27.197 43.003 26.9687 43.3505 26.8048 43.7453C26.641 44.14 26.5591 44.5794 26.5591 45.0461C26.5591 45.5128 26.641 45.9498 26.8048 46.347C26.9687 46.7417 27.197 47.0918 27.4875 47.3797C27.7779 47.6702 28.1304 47.8986 28.5351 48.0624C28.9397 48.2263 29.3865 48.3082 29.8631 48.3082C30.3472 48.3082 30.799 48.2263 31.2037 48.0624C31.6083 47.9011 31.9608 47.6702 32.2512 47.3797C32.5417 47.0893 32.7701 46.7417 32.9339 46.347C33.0977 45.9498 33.1796 45.5128 33.1796 45.0461C33.1796 44.5794 33.0977 44.1425 32.9339 43.7453C32.7701 43.348 32.5417 43.0005 32.2512 42.7125C31.9608 42.4221 31.6083 42.1937 31.2037 42.0298C30.7965 41.866 30.3472 41.784 29.8607 41.784ZM29.8607 47.5883C29.4933 47.5883 29.1581 47.5212 28.8652 47.3921C28.5723 47.263 28.3191 47.0793 28.113 46.8509C27.907 46.6225 27.7457 46.3495 27.6315 46.0391C27.5198 45.7313 27.4627 45.3962 27.4627 45.0461C27.4627 44.6961 27.5198 44.3609 27.6315 44.0531C27.7432 43.7428 27.9045 43.4697 28.113 43.2413C28.3191 43.0129 28.5723 42.8267 28.8652 42.6927C29.1581 42.5586 29.4908 42.4891 29.8607 42.4891C30.2281 42.4891 30.5657 42.5586 30.8636 42.6927C31.159 42.8267 31.4147 43.0129 31.6232 43.2413C31.8292 43.4697 31.9906 43.7428 32.1048 44.0531C32.2165 44.3634 32.2736 44.6961 32.2736 45.0461C32.2736 45.3962 32.2165 45.7288 32.1048 46.0391C31.9931 46.3495 31.8317 46.6225 31.6232 46.8509C31.4147 47.0818 31.1614 47.263 30.8636 47.3921C30.5657 47.5237 30.2305 47.5883 29.8607 47.5883ZM29.8607 42.5462C29.5007 42.5462 29.173 42.6132 28.89 42.7448C28.6046 42.8764 28.3588 43.0551 28.1577 43.2785C27.9567 43.502 27.7978 43.7676 27.6886 44.073C27.5793 44.3758 27.5222 44.7035 27.5222 45.0461C27.5222 45.3887 27.5768 45.7164 27.6886 46.0193C27.7978 46.3222 27.9567 46.5878 28.1577 46.8112C28.3588 47.0346 28.607 47.2134 28.89 47.34C29.1755 47.4666 29.5007 47.5312 29.8607 47.5312C30.2206 47.5312 30.5508 47.4666 30.8387 47.34C31.1267 47.2134 31.3749 47.0346 31.5785 46.8112C31.7796 46.5878 31.9384 46.3222 32.0477 46.0193C32.1569 45.7164 32.214 45.3887 32.214 45.0461C32.214 44.7035 32.1594 44.3758 32.0477 44.073C31.9384 43.7701 31.7796 43.5044 31.5785 43.2785C31.3774 43.0551 31.1292 42.8764 30.8387 42.7448C30.5508 42.6132 30.2206 42.5462 29.8607 42.5462Z" fill="white"/>
<path d="M36.0154 48.1764H35.1068V41.9154H40.3894V48.1764H39.4809V42.68H36.0154V48.1764Z" fill="white"/>
<path d="M39.452 48.2036V42.7072H36.0461V48.2036H35.0805V41.8855H40.4201V48.2036H39.452ZM39.5091 48.1465H40.3606V41.9451H35.1351V48.1465H35.9866V42.6501H39.5091V48.1465Z" fill="white"/>
<path d="M47.4649 43.0804L43.6271 48.1771H42.6912V41.9161H43.6271V46.8241L47.4649 41.9161H48.4008V48.1771H47.4649V43.0804Z" fill="white"/>
<path d="M48.4313 48.2043H47.4383V43.1647L43.6427 48.2043H42.6647V41.8862H43.6576V46.7396L47.4532 41.8862H48.4313V48.2043ZM47.493 48.1472H48.3717V41.9458H47.4781L43.5956 46.9084V41.9458H42.7168V48.1472H43.6105L47.493 42.9934V48.1472Z" fill="white"/>
<path d="M51.6647 51.3865H50.7562V41.9155H51.6647V42.9979H51.7044C51.9626 42.5883 52.3077 42.278 52.7421 42.0694C53.174 41.8609 53.6134 41.7542 54.0603 41.7542C54.5518 41.7542 54.9936 41.8386 55.3908 42.0074C55.788 42.1762 56.1256 42.4096 56.4061 42.7025C56.6866 42.9954 56.9051 43.3455 57.0615 43.7452C57.2179 44.1473 57.2948 44.5793 57.2948 45.0436C57.2948 45.5078 57.2179 45.9398 57.0615 46.3419C56.9051 46.7441 56.6866 47.0917 56.4061 47.3846C56.1256 47.6776 55.7855 47.9109 55.3908 48.0797C54.9936 48.2485 54.5493 48.3329 54.0603 48.3329C53.6134 48.3329 53.174 48.2287 52.7421 48.0177C52.3102 47.8091 51.9651 47.5063 51.7044 47.114H51.6647V51.3865ZM56.3317 45.046C56.3317 44.6985 56.2771 44.3708 56.1703 44.0629C56.0636 43.7551 55.9097 43.487 55.7086 43.2611C55.5075 43.0327 55.2593 42.8539 54.9663 42.7199C54.6734 42.5858 54.3383 42.5188 53.9634 42.5188C53.6159 42.5188 53.2957 42.5833 53.0003 42.7124C52.7049 42.8415 52.4517 43.0203 52.2382 43.2462C52.0247 43.4746 51.8559 43.7402 51.7367 44.048C51.6151 44.3559 51.5555 44.6885 51.5555 45.0436C51.5555 45.401 51.6151 45.7312 51.7367 46.0391C51.8559 46.3469 52.0247 46.6125 52.2382 46.836C52.4517 47.0594 52.7073 47.2357 53.0003 47.3647C53.2957 47.4938 53.6159 47.5584 53.9634 47.5584C54.3383 47.5584 54.6734 47.4938 54.9663 47.3647C55.2617 47.2357 55.5075 47.0569 55.7086 46.8285C55.9097 46.6001 56.0636 46.3345 56.1703 46.0266C56.2795 45.7213 56.3317 45.3936 56.3317 45.046Z" fill="white"/>
<path d="M51.6907 51.4137H50.725V41.8856H51.6907V42.9631C51.9488 42.5609 52.2989 42.2506 52.7258 42.042C53.1602 41.831 53.6071 41.7243 54.0564 41.7243C54.5479 41.7243 54.9997 41.8112 55.3994 41.98C55.799 42.1513 56.1441 42.3871 56.4246 42.6825C56.7076 42.978 56.9285 43.333 57.0849 43.7351C57.2413 44.1373 57.3208 44.5792 57.3208 45.0434C57.3208 45.5077 57.2413 45.9471 57.0849 46.3518C56.9285 46.7539 56.7051 47.1089 56.4246 47.4044C56.1416 47.6998 55.7966 47.9356 55.3994 48.1069C54.9997 48.2782 54.5479 48.3626 54.0564 48.3626C53.6096 48.3626 53.1602 48.2559 52.7258 48.0449C52.2964 47.8363 51.9488 47.5359 51.6907 47.1511V51.4137ZM50.7821 51.3566H51.6336V47.0891H51.718L51.7254 47.1015C51.9786 47.4888 52.3237 47.7892 52.7506 47.9952C53.1776 48.2013 53.617 48.3055 54.0564 48.3055C54.5405 48.3055 54.9848 48.2211 55.377 48.0548C55.7693 47.8885 56.1069 47.6551 56.3849 47.3646C56.6604 47.0742 56.8789 46.7266 57.0353 46.3319C57.1892 45.9347 57.2686 45.5027 57.2686 45.0459C57.2686 44.5891 57.1917 44.1547 57.0353 43.76C56.8814 43.3628 56.6629 43.0152 56.3849 42.7272C56.1094 42.4368 55.7693 42.2059 55.377 42.0371C54.9848 41.8707 54.5405 41.7863 54.0564 41.7863C53.617 41.7863 53.1776 41.8906 52.7506 42.0966C52.3262 42.3027 51.9811 42.613 51.7254 43.0152L51.718 43.0276H51.6336V41.9452H50.7821V51.3566ZM53.9621 47.5881C53.612 47.5881 53.2844 47.521 52.9865 47.3919C52.6911 47.2629 52.4304 47.0816 52.2144 46.8582C51.9985 46.6348 51.8272 46.3617 51.708 46.0538C51.5864 45.7435 51.5243 45.4059 51.5243 45.0459C51.5243 44.686 51.5864 44.3483 51.708 44.038C51.8297 43.7277 51.9985 43.4546 52.2144 43.2262C52.4304 42.9978 52.6886 42.8141 52.9865 42.685C53.2844 42.5534 53.612 42.4889 53.9621 42.4889C54.3394 42.4889 54.6795 42.5584 54.9774 42.6925C55.2753 42.8265 55.526 43.0127 55.7295 43.2411C55.9306 43.4695 56.0895 43.7426 56.1962 44.0529C56.303 44.3607 56.3576 44.6959 56.3576 45.0459C56.3576 45.396 56.303 45.7286 56.1962 46.039C56.0895 46.3493 55.9306 46.6224 55.7295 46.8508C55.526 47.0816 55.2728 47.2629 54.9774 47.3919C54.682 47.5235 54.3394 47.5881 53.9621 47.5881ZM53.9621 42.546C53.6195 42.546 53.2993 42.6105 53.0113 42.7371C52.7209 42.8638 52.4677 43.0425 52.2591 43.2659C52.0481 43.4894 51.8818 43.7575 51.7626 44.0604C51.6435 44.3632 51.5839 44.6959 51.5839 45.0459C51.5839 45.396 51.6435 45.7286 51.7626 46.0315C51.8818 46.3344 52.0481 46.6 52.2591 46.8185C52.4701 47.0369 52.7233 47.2132 53.0113 47.3398C53.2993 47.4664 53.6195 47.531 53.9621 47.531C54.3319 47.531 54.6646 47.4664 54.9525 47.3398C55.2405 47.2132 55.4888 47.0345 55.6849 46.811C55.881 46.5876 56.0349 46.322 56.1416 46.0191C56.2484 45.7162 56.3005 45.3885 56.3005 45.0459C56.3005 44.7033 56.2459 44.3756 56.1416 44.0728C56.0374 43.7699 55.8835 43.5043 55.6849 43.2808C55.4888 43.0574 55.2405 42.8787 54.9525 42.7471C54.6646 42.613 54.3319 42.546 53.9621 42.546Z" fill="white"/>
<path d="M65.466 45.0463C65.466 45.518 65.3841 45.9549 65.2178 46.3571C65.0515 46.7593 64.8231 47.1068 64.5302 47.3998C64.2372 47.6927 63.8847 47.9236 63.4727 48.0875C63.0631 48.2513 62.6113 48.3357 62.1222 48.3357C61.6406 48.3357 61.1938 48.2538 60.7842 48.0875C60.3746 47.9236 60.0221 47.6927 59.7267 47.3998C59.4313 47.1044 59.2029 46.7568 59.0391 46.3571C58.8728 45.9549 58.7908 45.518 58.7908 45.0463C58.7908 44.5746 58.8728 44.1377 59.0391 43.7355C59.2029 43.3334 59.4338 42.9858 59.7267 42.6929C60.0221 42.3974 60.3721 42.169 60.7842 42.0052C61.1938 41.8413 61.6406 41.7569 62.1222 41.7569C62.6113 41.7569 63.0631 41.8388 63.4727 42.0052C63.8823 42.1715 64.2348 42.3999 64.5302 42.6929C64.8256 42.9883 65.054 43.3358 65.2178 43.7355C65.3841 44.1352 65.466 44.5721 65.466 45.0463ZM64.5029 45.0463C64.5029 44.6988 64.4482 44.3711 64.3365 44.0632C64.2248 43.7554 64.066 43.4873 63.8624 43.2614C63.6564 43.033 63.4081 42.8542 63.1127 42.7202C62.8173 42.5861 62.4896 42.5191 62.1222 42.5191C61.7573 42.5191 61.4296 42.5861 61.1392 42.7202C60.8488 42.8542 60.603 43.0354 60.397 43.2614C60.1909 43.4898 60.0345 43.7554 59.9228 44.0632C59.8111 44.3711 59.7565 44.6988 59.7565 45.0463C59.7565 45.3939 59.8111 45.7216 59.9228 46.0294C60.0345 46.3373 60.1934 46.6054 60.397 46.8313C60.603 47.0597 60.8488 47.2384 61.1392 47.3675C61.4296 47.4966 61.7573 47.5612 62.1222 47.5612C62.4871 47.5612 62.8173 47.4966 63.1127 47.3675C63.4081 47.2384 63.6564 47.0597 63.8624 46.8313C64.0684 46.6029 64.2248 46.3373 64.3365 46.0294C64.4482 45.7216 64.5029 45.3939 64.5029 45.0463Z" fill="white"/>
<path d="M62.1232 48.3653C61.6391 48.3653 61.1873 48.2809 60.7752 48.117C60.3631 47.9507 60.0057 47.7174 59.7103 47.4219C59.4148 47.1265 59.1815 46.7715 59.0152 46.3693C58.8489 45.9671 58.7645 45.5228 58.7645 45.0486C58.7645 44.5744 58.8489 44.1301 59.0152 43.7279C59.1815 43.3257 59.4148 42.9707 59.7103 42.6753C60.0057 42.3798 60.3631 42.1465 60.7752 41.9802C61.1873 41.8138 61.6416 41.7294 62.1232 41.7294C62.6147 41.7294 63.0739 41.8138 63.4835 41.9777C63.8956 42.144 64.2556 42.3774 64.551 42.6728C64.8464 42.9682 65.0797 43.3232 65.246 43.7254C65.4124 44.1276 65.4968 44.5719 65.4968 45.0461C65.4968 45.5203 65.4124 45.9647 65.246 46.3668C65.0797 46.769 64.8464 47.124 64.551 47.4194C64.2556 47.7149 63.8956 47.9482 63.486 48.1146C63.0739 48.2809 62.6147 48.3653 62.1232 48.3653ZM62.1232 41.784C61.6465 41.784 61.2022 41.866 60.7976 42.0298C60.3929 42.1937 60.0404 42.4221 59.75 42.7125C59.4595 43.003 59.2312 43.3505 59.0673 43.7453C58.9035 44.14 58.8216 44.5794 58.8216 45.0461C58.8216 45.5128 58.9035 45.9498 59.0673 46.347C59.2312 46.7417 59.4595 47.0918 59.75 47.3797C60.0404 47.6702 60.3929 47.8986 60.7976 48.0624C61.2022 48.2263 61.649 48.3082 62.1256 48.3082C62.6097 48.3082 63.0615 48.2263 63.4661 48.0624C63.8708 47.9011 64.2233 47.6702 64.5137 47.3797C64.8042 47.0893 65.0325 46.7417 65.1964 46.347C65.3602 45.9498 65.4421 45.5128 65.4421 45.0461C65.4421 44.5794 65.3602 44.1425 65.1964 43.7453C65.0325 43.348 64.8042 43.0005 64.5137 42.7125C64.2233 42.4221 63.8708 42.1937 63.4661 42.0298C63.059 41.866 62.6072 41.784 62.1232 41.784ZM62.1232 47.5883C61.7558 47.5883 61.4206 47.5212 61.1277 47.3921C60.8348 47.263 60.5816 47.0793 60.3755 46.8509C60.1695 46.6225 60.0081 46.3495 59.894 46.0391C59.7822 45.7313 59.7252 45.3962 59.7252 45.0461C59.7252 44.6961 59.7822 44.3609 59.894 44.0531C60.0057 43.7428 60.167 43.4697 60.3755 43.2413C60.5816 43.0129 60.8348 42.8267 61.1277 42.6927C61.4206 42.5586 61.7533 42.4891 62.1232 42.4891C62.4906 42.4891 62.8282 42.5586 63.1261 42.6927C63.4215 42.8267 63.6772 43.0129 63.8857 43.2413C64.0917 43.4697 64.2531 43.7428 64.3673 44.0531C64.479 44.3634 64.5361 44.6961 64.5361 45.0461C64.5361 45.3962 64.479 45.7288 64.3673 46.0391C64.2556 46.3495 64.0942 46.6225 63.8857 46.8509C63.6772 47.0818 63.4239 47.263 63.1261 47.3921C62.8282 47.5237 62.4906 47.5883 62.1232 47.5883ZM62.1232 42.5462C61.7632 42.5462 61.4355 42.6132 61.1525 42.7448C60.8671 42.8764 60.6213 43.0551 60.4202 43.2785C60.2192 43.502 60.0603 43.7676 59.951 44.073C59.8418 44.3758 59.7847 44.7035 59.7847 45.0461C59.7847 45.3887 59.8393 45.7164 59.951 46.0193C60.0603 46.3222 60.2192 46.5878 60.4202 46.8112C60.6213 47.0346 60.8695 47.2134 61.1525 47.34C61.438 47.4666 61.7632 47.5312 62.1232 47.5312C62.4831 47.5312 62.8133 47.4666 63.1012 47.34C63.3892 47.2134 63.6374 47.0346 63.841 46.8112C64.0421 46.5878 64.2009 46.3222 64.3102 46.0193C64.4194 45.7164 64.4765 45.3887 64.4765 45.0461C64.4765 44.7035 64.4219 44.3758 64.3102 44.073C64.2009 43.7701 64.0421 43.5044 63.841 43.2785C63.6399 43.0551 63.3917 42.8764 63.1012 42.7448C62.8133 42.6132 62.4831 42.5462 62.1232 42.5462Z" fill="white"/>
<path d="M70.2302 48.1771H67.3679V41.9161H70.0688C70.8632 41.9161 71.4515 42.07 71.8338 42.3778C72.2161 42.6857 72.4097 43.0928 72.4097 43.6017C72.4097 43.8326 72.375 44.0287 72.303 44.1827C72.231 44.3391 72.1317 44.4682 72.0026 44.5699C71.8735 44.6717 71.7246 44.7561 71.5558 44.8182C71.387 44.8803 71.2082 44.9398 71.022 44.992C71.2529 45.0094 71.4714 45.0491 71.6774 45.1136C71.8834 45.1757 72.0622 45.2675 72.2186 45.3867C72.375 45.5083 72.4966 45.6598 72.586 45.841C72.6753 46.0247 72.72 46.2457 72.72 46.5039C72.72 47.0128 72.5115 47.4174 72.092 47.7203C71.67 48.0232 71.0518 48.1771 70.2302 48.1771ZM70.0167 44.6841C70.4635 44.6841 70.8135 44.6146 71.0667 44.4756C71.3199 44.3366 71.449 44.061 71.449 43.6464C71.449 43.4131 71.3994 43.2294 71.3026 43.0953C71.2033 42.9612 71.0667 42.8595 70.888 42.7924C70.7093 42.7254 70.4958 42.6832 70.245 42.6658C69.9943 42.6484 69.7188 42.6385 69.4159 42.6385H68.279V44.6841H70.0167ZM68.2765 47.4547H69.4408C69.7709 47.4547 70.0738 47.4472 70.3493 47.4348C70.6249 47.4224 70.8657 47.3802 71.0717 47.3132C71.2777 47.2461 71.4366 47.1394 71.5533 46.9979C71.67 46.8539 71.727 46.6528 71.727 46.3921C71.727 45.9602 71.5682 45.6796 71.2529 45.5431C70.9352 45.409 70.5107 45.342 69.9745 45.342H68.2765V47.4547Z" fill="white"/>
<path d="M70.2288 48.2043H67.3368V41.8862H70.0674C70.8643 41.8862 71.465 42.0426 71.8498 42.3529C72.2395 42.6657 72.4356 43.0853 72.4356 43.5991C72.4356 43.835 72.3984 44.0336 72.3264 44.1925C72.2544 44.3514 72.1502 44.4854 72.0161 44.5922C71.8845 44.6964 71.7306 44.7809 71.5594 44.8429C71.4327 44.8901 71.3012 44.9348 71.1622 44.977C71.3409 44.9993 71.5147 45.0341 71.676 45.0837C71.8845 45.1458 72.0682 45.2401 72.2271 45.3618C72.386 45.4834 72.5126 45.6398 72.6044 45.826C72.6963 46.0122 72.741 46.2381 72.741 46.5013C72.741 47.0176 72.525 47.4347 72.1005 47.7425C71.6835 48.0504 71.0529 48.2043 70.2288 48.2043ZM70.2288 48.1472C71.038 48.1472 71.6586 47.9958 72.0707 47.6979C72.4803 47.4024 72.6864 47.0003 72.6864 46.5037C72.6864 46.2505 72.6417 46.0321 72.5548 45.8533C72.4679 45.6746 72.3463 45.5256 72.1948 45.4089C72.0434 45.2923 71.8622 45.2004 71.6611 45.1383C71.4601 45.0763 71.2416 45.0366 71.0107 45.0192L70.8519 45.0068L71.0058 44.9621C71.192 44.9099 71.3707 44.8504 71.5395 44.7883C71.7058 44.7262 71.8523 44.6468 71.9789 44.545C72.103 44.4457 72.2023 44.3191 72.2718 44.1677C72.3413 44.0162 72.3761 43.8251 72.3761 43.5967C72.3761 43.1002 72.1874 42.6955 71.8126 42.3951C71.4352 42.0922 70.8469 41.9408 70.0649 41.9408H67.3914V48.1472H70.2288ZM69.4394 47.4819H68.2478V45.3121H69.9756C70.5118 45.3121 70.9462 45.3816 71.2639 45.5157C71.5916 45.6547 71.7555 45.9501 71.7555 46.3895C71.7555 46.6552 71.6959 46.8662 71.5742 47.0127C71.4551 47.1591 71.2888 47.2684 71.0802 47.3379C70.8742 47.4049 70.6284 47.4471 70.3504 47.4595C70.0749 47.4744 69.767 47.4819 69.4394 47.4819ZM68.3049 47.4248H69.4394C69.767 47.4248 70.0724 47.4173 70.3479 47.4049C70.621 47.3925 70.8593 47.3503 71.0629 47.2858C71.2615 47.2212 71.4178 47.1169 71.532 46.9779C71.6437 46.8414 71.6984 46.6428 71.6984 46.3895C71.6984 45.9675 71.5494 45.6994 71.2416 45.5678C70.9288 45.4362 70.5043 45.3692 69.9756 45.3692H68.3049V47.4248ZM70.0153 44.7138H68.2478V42.6111H69.4145C69.7174 42.6111 69.9979 42.621 70.2462 42.6384C70.4969 42.6558 70.7153 42.7005 70.8965 42.7675C71.0802 42.837 71.2242 42.9413 71.3235 43.0803C71.4253 43.2193 71.4749 43.4105 71.4749 43.6488C71.4749 44.0708 71.3409 44.3588 71.0778 44.5028C70.8221 44.6418 70.4646 44.7138 70.0153 44.7138ZM68.3049 44.6567H70.0153C70.4547 44.6567 70.8022 44.5872 71.0505 44.4507C71.2937 44.3166 71.4179 44.0485 71.4179 43.6488C71.4179 43.4229 71.3707 43.2417 71.2764 43.1151C71.182 42.986 71.0455 42.8867 70.8742 42.8221C70.698 42.7551 70.4845 42.7129 70.2412 42.6955C69.9929 42.6781 69.7149 42.6682 69.4145 42.6682H68.3074V44.6567H68.3049Z" fill="white"/>
<path d="M78.5999 44.1252C78.5999 43.5865 78.4584 43.1818 78.1729 42.9162C77.8874 42.6506 77.4729 42.519 76.9292 42.519C76.5544 42.519 76.2068 42.586 75.8866 42.7201C75.5664 42.8541 75.2933 43.0329 75.0699 43.2563L74.561 42.6555C74.8192 42.3973 75.1617 42.1838 75.5838 42.0125C76.0082 41.8437 76.4873 41.7593 77.0211 41.7593C77.3587 41.7593 77.6764 41.8065 77.9718 41.9008C78.2672 41.9952 78.5254 42.1342 78.7488 42.3229C78.9722 42.5091 79.146 42.7474 79.2701 43.0329C79.3943 43.3184 79.4563 43.6535 79.4563 44.0358V46.7791C79.4563 47.0199 79.4662 47.2706 79.4836 47.5288C79.501 47.787 79.5283 48.0054 79.5631 48.1842H78.7463C78.719 48.0327 78.6967 47.8689 78.6793 47.6902C78.6619 47.5114 78.652 47.3376 78.652 47.1688H78.6247C78.3392 47.5884 78.0165 47.8888 77.6541 48.0725C77.2941 48.2562 76.8572 48.3456 76.3508 48.3456C76.11 48.3456 75.8618 48.3108 75.6086 48.2438C75.3554 48.1767 75.122 48.0675 74.9135 47.9161C74.705 47.7646 74.5312 47.566 74.3922 47.3252C74.2532 47.0844 74.1862 46.789 74.1862 46.4389C74.1862 45.9548 74.3078 45.5725 74.5536 45.292C74.7993 45.0115 75.127 44.8005 75.5366 44.6614C75.9462 44.5224 76.4178 44.433 76.9466 44.3933C77.4778 44.3536 78.0289 44.3337 78.5974 44.3337V44.1252H78.5999ZM78.3318 45.0462C77.9569 45.0462 77.5796 45.0611 77.2023 45.0934C76.8225 45.1257 76.4799 45.1877 76.1721 45.2796C75.8643 45.3739 75.6135 45.508 75.4174 45.6867C75.2213 45.8655 75.122 46.1013 75.122 46.3967C75.122 46.6202 75.1642 46.8064 75.2486 46.9578C75.333 47.1092 75.4472 47.2309 75.5887 47.3252C75.7302 47.4196 75.8891 47.4866 76.0629 47.5263C76.2366 47.566 76.4129 47.5859 76.5916 47.5859C76.9118 47.5859 77.1973 47.5313 77.448 47.4196C77.6988 47.3078 77.9073 47.1564 78.0761 46.9652C78.2449 46.7741 78.374 46.5531 78.4634 46.3024C78.5527 46.0541 78.5974 45.791 78.5974 45.513V45.0437H78.3318V45.0462Z" fill="white"/>
<path d="M76.3544 48.3654C76.1136 48.3654 75.8604 48.3306 75.6047 48.2636C75.349 48.1966 75.1107 48.0849 74.8997 47.9309C74.6887 47.777 74.5099 47.5759 74.3709 47.3302C74.2319 47.0844 74.1599 46.784 74.1599 46.429C74.1599 45.9399 74.2865 45.5477 74.5348 45.2622C74.783 44.9767 75.1181 44.7632 75.5302 44.6242C75.9398 44.4852 76.4189 44.3958 76.9477 44.3536C77.469 44.3139 78.0151 44.294 78.5736 44.294V44.1227C78.5736 43.5939 78.4322 43.1942 78.1541 42.936C77.8761 42.6778 77.464 42.5463 76.9303 42.5463C76.5604 42.5463 76.2129 42.6133 75.8976 42.7449C75.5823 42.8765 75.3093 43.0552 75.0908 43.2737L75.0685 43.296L74.5224 42.6505L74.5397 42.6332C74.8004 42.3725 75.1479 42.154 75.5724 41.9852C75.9969 41.8164 76.4859 41.7295 77.0221 41.7295C77.3622 41.7295 77.6849 41.7767 77.9804 41.871C78.2758 41.9654 78.5414 42.1093 78.7648 42.298C78.9907 42.4867 79.167 42.73 79.2936 43.018C79.4202 43.3059 79.4822 43.646 79.4822 44.0333V46.7766C79.4822 47.0174 79.4921 47.2681 79.5095 47.5238C79.5269 47.7795 79.5542 47.998 79.589 48.1767L79.5964 48.2115H78.7226L78.7176 48.1867C78.6903 48.0327 78.668 47.8664 78.6506 47.6901C78.6357 47.5313 78.6258 47.3724 78.6233 47.2184C78.3428 47.6206 78.0201 47.916 77.6676 48.0948C77.3076 48.2711 76.8633 48.3654 76.3544 48.3654ZM78.601 44.3511C78.035 44.3511 77.4814 44.371 76.9502 44.4107C76.4239 44.4504 75.9522 44.5398 75.5451 44.6788C75.1405 44.8153 74.8153 45.0239 74.5745 45.3019C74.3362 45.5775 74.2145 45.9573 74.2145 46.4315C74.2145 46.7741 74.284 47.067 74.4181 47.3029C74.5546 47.5387 74.7259 47.7348 74.932 47.8838C75.138 48.0327 75.3689 48.142 75.6171 48.209C75.8678 48.276 76.1161 48.3083 76.3519 48.3083C76.8533 48.3083 77.2878 48.2164 77.6427 48.0377C77.9977 47.859 78.3204 47.5586 78.601 47.144L78.6084 47.1316H78.6779V47.1614C78.6779 47.3302 78.6878 47.5064 78.7052 47.6802C78.7226 47.8465 78.7425 48.0029 78.7673 48.1494H79.5244C79.4921 47.9781 79.4673 47.7671 79.4499 47.5238C79.4326 47.2681 79.4226 47.0149 79.4226 46.7716V44.0284C79.4226 43.651 79.3606 43.3183 79.2389 43.0378C79.1173 42.7573 78.9435 42.5239 78.7251 42.3402C78.5066 42.1565 78.2485 42.015 77.958 41.9231C77.6676 41.8313 77.3523 41.7841 77.0172 41.7841C76.4884 41.7841 76.0093 41.8685 75.5898 42.0373C75.1827 42.2012 74.8476 42.4072 74.5943 42.6555L75.066 43.2141C75.2869 43.0006 75.5575 42.8243 75.8678 42.6952C76.1905 42.5612 76.5455 42.4917 76.9228 42.4917C77.4715 42.4917 77.896 42.6282 78.1864 42.8988C78.4768 43.1694 78.6233 43.5815 78.6233 44.1277V44.3561H78.601V44.3511ZM76.5952 47.6157C76.4164 47.6157 76.2352 47.5958 76.0615 47.5536C75.8852 47.5139 75.7214 47.4444 75.5774 47.35C75.4309 47.2532 75.3142 47.1266 75.2274 46.9727C75.1405 46.8188 75.0958 46.6251 75.0958 46.3967C75.0958 46.0963 75.1976 45.8506 75.3987 45.6668C75.5972 45.4856 75.8554 45.3466 76.1657 45.2523C76.4735 45.1579 76.8211 45.0959 77.2009 45.0636C77.5807 45.0313 77.9605 45.0164 78.3329 45.0164H78.6283V45.5129C78.6283 45.791 78.5836 46.0591 78.4917 46.3123C78.4024 46.5631 78.2683 46.789 78.0995 46.9826C77.9282 47.1762 77.7123 47.3326 77.4615 47.4444C77.2108 47.5586 76.9179 47.6157 76.5952 47.6157ZM78.3329 45.0735C77.9605 45.0735 77.5832 45.0884 77.2058 45.1207C76.831 45.153 76.486 45.215 76.1831 45.3069C75.8802 45.3987 75.6295 45.5328 75.4384 45.7091C75.2497 45.8803 75.1529 46.1112 75.1529 46.3967C75.1529 46.6152 75.1951 46.7989 75.277 46.9454C75.3589 47.0918 75.4706 47.2135 75.6097 47.3029C75.7487 47.3947 75.9051 47.4593 76.0763 47.499C76.2476 47.5387 76.4239 47.5586 76.5977 47.5586C76.9129 47.5586 77.1984 47.5039 77.4417 47.3947C77.6874 47.2855 77.8935 47.134 78.0598 46.9479C78.2261 46.7592 78.3552 46.5407 78.4421 46.2949C78.529 46.0492 78.5736 45.786 78.5736 45.5154V45.076H78.3329V45.0735Z" fill="white"/>
<path d="M86.0489 48.176L83.976 43.0123L81.8089 48.176H80.8581L83.6012 41.915H84.403L86.9698 48.176H86.0489Z" fill="white"/>
<path d="M87.0159 48.2034H86.0304L86.0229 48.186L83.9749 43.0868L81.8276 48.2034H80.8148L83.5827 41.8877H84.4242L84.4317 41.9051L87.0159 48.2034ZM86.0701 48.1463H86.9315L84.387 41.9448H83.6224L80.9067 48.1463H81.7929L83.9799 42.9354L84.0072 42.9999L86.0701 48.1463Z" fill="white"/>
<path d="M89.3015 44.0828H90.853C91.3173 44.0828 91.712 44.1349 92.0371 44.2367C92.3623 44.3385 92.6255 44.4825 92.8265 44.6637C93.0276 44.8474 93.1716 45.0634 93.261 45.3116C93.3503 45.5624 93.395 45.828 93.395 46.1135C93.395 46.399 93.3404 46.6671 93.2337 46.9154C93.1269 47.1661 92.9681 47.3846 92.7595 47.5708C92.551 47.757 92.2904 47.9059 91.9825 48.0127C91.6747 48.1194 91.3148 48.174 90.9052 48.174H88.3905V41.913H89.3015V44.0828ZM90.6917 47.4541C90.9424 47.4541 91.1733 47.4342 91.3868 47.3945C91.6002 47.3548 91.7864 47.2828 91.9428 47.1785C92.0992 47.0742 92.2184 46.9377 92.3028 46.7689C92.3872 46.5976 92.4294 46.3841 92.4294 46.1234C92.4294 45.8628 92.3847 45.6493 92.2953 45.478C92.2059 45.3067 92.0818 45.1726 91.9205 45.0758C91.7591 44.9765 91.5704 44.907 91.352 44.8673C91.1335 44.8275 90.9002 44.8077 90.6495 44.8077H89.299V47.4541H90.6917Z" fill="white"/>
<path d="M90.9086 48.2036H88.3641V41.8855H89.3298V44.0528H90.8515C91.3157 44.0528 91.7154 44.1049 92.043 44.2067C92.3707 44.311 92.6388 44.4574 92.8424 44.6411C93.0459 44.8248 93.1949 45.0483 93.2842 45.3015C93.3736 45.5547 93.4208 45.8278 93.4208 46.1133C93.4208 46.4013 93.3662 46.6744 93.2569 46.9276C93.1502 47.1808 92.9864 47.4042 92.7754 47.5929C92.5643 47.7816 92.2987 47.933 91.9909 48.0398C91.6856 48.149 91.3182 48.2036 90.9086 48.2036ZM88.4212 48.1465H90.9061C91.3107 48.1465 91.6707 48.0919 91.9735 47.9876C92.2764 47.8834 92.5346 47.7369 92.7406 47.5532C92.9466 47.3695 93.103 47.1535 93.2073 46.9077C93.3116 46.6619 93.3662 46.3963 93.3662 46.1158C93.3662 45.8352 93.3215 45.5696 93.2346 45.3238C93.1477 45.0806 93.0037 44.8646 92.8076 44.6858C92.6115 44.5071 92.3484 44.3656 92.0281 44.2638C91.7054 44.162 91.3107 44.1124 90.854 44.1124H89.2727V41.9451H88.4212V48.1465ZM90.6951 47.4812H89.2751V44.7752H90.6554C90.9061 44.7752 91.1444 44.7951 91.3629 44.8373C91.5838 44.877 91.7774 44.949 91.9413 45.0483C92.1051 45.1501 92.2342 45.2891 92.326 45.4629C92.4179 45.6366 92.4626 45.8576 92.4626 46.1207C92.4626 46.3839 92.4179 46.6048 92.3335 46.7786C92.2466 46.9524 92.1225 47.0939 91.9636 47.2007C91.8047 47.3049 91.6161 47.3794 91.3976 47.4191C91.1792 47.4613 90.9458 47.4812 90.6951 47.4812ZM90.6951 47.4241C90.9433 47.4241 91.1742 47.4042 91.3852 47.3645C91.5937 47.3248 91.7774 47.2553 91.9288 47.1535C92.0803 47.0542 92.197 46.9201 92.2789 46.7538C92.3608 46.5875 92.403 46.3764 92.403 46.1207C92.403 45.8675 92.3583 45.654 92.2714 45.4877C92.1845 45.3238 92.0629 45.1898 91.9065 45.0954C91.7501 44.9986 91.5614 44.9316 91.348 44.8919C91.132 44.8522 90.8962 44.8323 90.6504 44.8323H89.3273V47.4241H90.6951Z" fill="white"/>
<path d="M96.1248 48.1771H95.2163V41.9161H96.1248V44.4433H99.697V41.9161H100.606V48.1771H99.697V45.208H96.1248V48.1771Z" fill="white"/>
<path d="M100.634 48.2043H99.6681V45.2352H96.1555V48.2043H95.1899V41.8862H96.1555V44.4134H99.6681V41.8862H100.634V48.2043ZM99.7228 48.1472H100.574V41.9458H99.7228V44.473H96.0935V41.9458H95.242V48.1472H96.0935V45.1781H99.7228V48.1472Z" fill="white"/>
<path d="M103.811 44.0834H105.094C105.558 44.0834 105.951 44.1356 106.271 44.2374C106.591 44.3392 106.849 44.4831 107.048 44.6644C107.244 44.8481 107.386 45.0641 107.475 45.3123C107.564 45.5631 107.609 45.8287 107.609 46.1142C107.609 46.3997 107.557 46.6678 107.455 46.9161C107.353 47.1668 107.199 47.3853 106.993 47.5714C106.787 47.7576 106.532 47.9066 106.224 48.0133C105.916 48.1201 105.556 48.1747 105.146 48.1747H102.9V41.9137H103.811V44.0834ZM103.811 47.4548H104.935C105.186 47.4548 105.417 47.4349 105.63 47.3952C105.844 47.3555 106.025 47.2835 106.172 47.1792C106.318 47.0749 106.435 46.9384 106.519 46.7696C106.604 46.5983 106.646 46.3848 106.646 46.1241C106.646 45.8634 106.601 45.6499 106.512 45.4786C106.422 45.3074 106.301 45.1733 106.144 45.0765C105.988 44.9772 105.804 44.9077 105.588 44.8679C105.375 44.8282 105.141 44.8084 104.893 44.8084H103.811V47.4548ZM109.334 41.9162V48.1772H108.426V41.9162H109.334Z" fill="white"/>
<path d="M109.365 48.2043H108.399V41.8862H109.365V48.2043ZM108.454 48.1472H109.305V41.9458H108.454V48.1472ZM105.15 48.2043H102.873V41.8862H103.839V44.0535H105.095C105.559 44.0535 105.959 44.1056 106.282 44.2074C106.605 44.3116 106.87 44.4581 107.069 44.6418C107.267 44.828 107.414 45.049 107.503 45.3022C107.592 45.5554 107.64 45.8285 107.64 46.114C107.64 46.402 107.588 46.675 107.483 46.9283C107.379 47.1815 107.223 47.4049 107.014 47.5936C106.806 47.7823 106.545 47.9337 106.235 48.0405C105.927 48.1497 105.562 48.2043 105.15 48.2043ZM102.931 48.1472H105.15C105.554 48.1472 105.914 48.0926 106.217 47.9883C106.52 47.8841 106.776 47.7376 106.977 47.5539C107.178 47.3702 107.332 47.1542 107.431 46.9084C107.533 46.6626 107.583 46.397 107.583 46.1165C107.583 45.8359 107.538 45.5703 107.451 45.3245C107.364 45.0812 107.223 44.8653 107.031 44.6865C106.84 44.5078 106.582 44.3663 106.267 44.2645C105.949 44.1627 105.557 44.113 105.098 44.113H103.784V41.9458H102.933V48.1472H102.931ZM104.936 47.4819H103.784V44.7759H104.897C105.147 44.7759 105.383 44.7957 105.597 44.8379C105.813 44.8777 106.004 44.9497 106.163 45.0514C106.322 45.1532 106.451 45.2923 106.54 45.466C106.632 45.6398 106.676 45.8608 106.676 46.1239C106.676 46.3871 106.632 46.608 106.547 46.7818C106.461 46.9556 106.341 47.0971 106.19 47.2038C106.041 47.3081 105.855 47.3826 105.636 47.4248C105.423 47.462 105.187 47.4819 104.936 47.4819ZM104.936 47.4248C105.185 47.4248 105.415 47.4049 105.626 47.3652C105.835 47.3255 106.014 47.256 106.158 47.1542C106.299 47.0549 106.413 46.9208 106.495 46.7545C106.577 46.5882 106.619 46.3771 106.619 46.1214C106.619 45.8682 106.575 45.6547 106.488 45.4884C106.401 45.3245 106.282 45.1905 106.13 45.0961C105.979 44.9993 105.795 44.9323 105.584 44.8926C105.373 44.8528 105.14 44.833 104.894 44.833H103.839V47.4248H104.936Z" fill="white"/>
<path d="M116.416 43.0798L112.578 48.1765H111.642V41.9155H112.578V46.8235L116.416 41.9155H117.352V48.1765H116.416V43.0798ZM112.508 39.0655C112.58 39.2716 112.672 39.4727 112.782 39.6663C112.893 39.8624 113.032 40.0337 113.196 40.1802C113.36 40.3267 113.556 40.4458 113.777 40.5352C114 40.6246 114.259 40.6693 114.554 40.6693C114.857 40.6693 115.125 40.6171 115.356 40.5154C115.587 40.4136 115.785 40.2845 115.952 40.1281C116.115 39.9717 116.249 39.8004 116.354 39.6142C116.456 39.428 116.537 39.2443 116.602 39.0655L115.947 38.7701C115.823 39.1102 115.656 39.3908 115.453 39.6117C115.247 39.8351 114.949 39.9468 114.556 39.9468C114.182 39.9468 113.889 39.8426 113.673 39.6316C113.459 39.423 113.29 39.135 113.164 38.7676L112.508 39.0655Z" fill="white"/>
<path d="M117.378 48.2039H116.385V43.1643L112.589 48.2039H111.611V41.8858H112.604V46.7392L116.399 41.8858H117.378V48.2039ZM116.442 48.1468H117.32V41.9454H116.427L112.544 46.908V41.9454H111.666V48.1468H112.559L116.442 42.993V48.1468ZM114.555 40.6991C114.257 40.6991 113.994 40.6545 113.768 40.5626C113.545 40.4732 113.346 40.3516 113.177 40.2026C113.011 40.0537 112.869 39.8774 112.758 39.6813C112.646 39.4852 112.554 39.2816 112.482 39.0755L112.475 39.0507L113.182 38.733L113.192 38.7627C113.314 39.1227 113.483 39.4082 113.694 39.6143C113.9 39.8178 114.19 39.9196 114.558 39.9196C114.94 39.9196 115.235 39.8104 115.431 39.5944C115.632 39.3759 115.796 39.0954 115.92 38.7603L115.93 38.7305L116.638 39.0482L116.63 39.0731C116.568 39.2518 116.484 39.438 116.382 39.6267C116.278 39.8153 116.141 39.9916 115.975 40.148C115.809 40.3069 115.605 40.4385 115.372 40.5403C115.133 40.647 114.86 40.6991 114.555 40.6991ZM112.544 39.083C112.614 39.2766 112.701 39.4703 112.807 39.6565C112.917 39.8476 113.053 40.0189 113.217 40.1654C113.378 40.3094 113.572 40.4285 113.79 40.5154C114.009 40.6023 114.267 40.647 114.555 40.647C114.853 40.647 115.119 40.5949 115.347 40.4956C115.575 40.3963 115.771 40.2672 115.933 40.1133C116.094 39.9593 116.228 39.788 116.327 39.6043C116.424 39.4281 116.504 39.2518 116.563 39.0855L115.96 38.8149C115.836 39.1426 115.67 39.4206 115.471 39.6391C115.26 39.8675 114.952 39.9817 114.555 39.9817C114.175 39.9817 113.87 39.8724 113.651 39.6589C113.44 39.4529 113.272 39.1699 113.148 38.8149L112.544 39.083Z" fill="white"/>
<path d="M122.991 48.1771V41.9161H123.899V47.3603H127.256V41.9161H128.164V47.3603H129.207V50.0365H128.298V48.1771H122.991Z" fill="white"/>
<path d="M129.24 50.0637H128.274V48.2043H122.965V41.8862H123.93V47.3304H127.229V41.8862H128.195V47.3304H129.238V50.0637H129.24ZM128.331 50.0066H129.183V47.39H128.14V41.9458H127.289V47.39H123.876V41.9458H123.024V48.1472H128.334V50.0066H128.331Z" fill="white"/>
<path d="M136.379 44.8577C136.379 44.9198 136.379 44.9868 136.379 45.0588C136.379 45.1308 136.375 45.2053 136.367 45.2872H131.176C131.186 45.6 131.248 45.8929 131.363 46.171C131.479 46.4466 131.638 46.6874 131.844 46.8934C132.05 47.0995 132.291 47.2608 132.567 47.3825C132.842 47.5041 133.142 47.5637 133.463 47.5637C133.934 47.5637 134.344 47.4545 134.686 47.236C135.029 47.0175 135.29 46.7668 135.468 46.4813L136.151 47.0151C135.776 47.4867 135.364 47.8269 134.915 48.0304C134.466 48.2365 133.981 48.3383 133.463 48.3383C132.998 48.3383 132.569 48.2563 132.172 48.09C131.775 47.9262 131.435 47.6953 131.149 47.4023C130.864 47.1069 130.638 46.7594 130.474 46.3597C130.308 45.9575 130.226 45.5206 130.226 45.0489C130.226 44.5772 130.305 44.1403 130.466 43.7381C130.628 43.3359 130.849 42.9883 131.134 42.6954C131.42 42.4 131.755 42.1716 132.137 42.0077C132.519 41.8439 132.934 41.7595 133.381 41.7595C133.87 41.7595 134.304 41.8414 134.679 42.0077C135.054 42.1741 135.367 42.395 135.615 42.6755C135.863 42.9561 136.054 43.2838 136.183 43.6586C136.315 44.0285 136.379 44.4307 136.379 44.8577ZM135.456 44.5648C135.429 43.9764 135.24 43.4873 134.888 43.1001C134.535 42.7128 134.034 42.5191 133.383 42.5191C133.08 42.5191 132.8 42.5738 132.542 42.6855C132.284 42.7972 132.055 42.9486 131.859 43.1398C131.663 43.3309 131.507 43.5494 131.39 43.7952C131.273 44.041 131.206 44.2967 131.189 44.5648H135.456Z" fill="white"/>
<path d="M133.464 48.3655C132.999 48.3655 132.56 48.2811 132.163 48.1148C131.766 47.9485 131.416 47.7151 131.13 47.4197C130.845 47.1243 130.614 46.7693 130.45 46.3671C130.284 45.9649 130.199 45.5205 130.199 45.0464C130.199 44.5722 130.281 44.1278 130.443 43.7256C130.604 43.3235 130.83 42.9685 131.118 42.673C131.403 42.3776 131.746 42.1443 132.131 41.9779C132.515 41.8116 132.937 41.7272 133.387 41.7272C133.878 41.7272 134.32 41.8116 134.695 41.9779C135.072 42.1443 135.39 42.3702 135.641 42.6532C135.891 42.9362 136.085 43.2689 136.214 43.6462C136.343 44.0236 136.41 44.4307 136.41 44.8602V45.0613C136.41 45.1308 136.405 45.2102 136.398 45.2921L136.393 45.3145H131.207C131.219 45.6099 131.282 45.8954 131.391 46.1586C131.505 46.4292 131.664 46.67 131.865 46.871C132.066 47.0721 132.307 47.2335 132.577 47.3527C132.848 47.4718 133.146 47.5314 133.461 47.5314C133.925 47.5314 134.332 47.4222 134.67 47.2087C135.008 46.9927 135.268 46.742 135.445 46.4614L135.462 46.4341L136.192 47.0076L136.174 47.0299C135.8 47.5041 135.38 47.8492 134.926 48.0552C134.474 48.2613 133.982 48.3655 133.464 48.3655ZM133.384 41.7843C132.945 41.7843 132.53 41.8662 132.15 42.0301C131.773 42.1939 131.438 42.4223 131.157 42.7128C130.877 43.0032 130.653 43.3508 130.495 43.748C130.336 44.1427 130.256 44.5821 130.256 45.0488C130.256 45.5156 130.338 45.9525 130.502 46.3497C130.666 46.7469 130.889 47.0945 131.172 47.3849C131.453 47.6754 131.795 47.9038 132.185 48.0676C132.577 48.2315 133.007 48.3134 133.466 48.3134C133.977 48.3134 134.462 48.2116 134.906 48.0081C135.343 47.8095 135.75 47.4768 136.115 47.0225L135.479 46.526C135.301 46.8015 135.04 47.0498 134.705 47.2633C134.36 47.4842 133.943 47.596 133.466 47.596C133.143 47.596 132.838 47.5339 132.558 47.4122C132.279 47.2906 132.034 47.1243 131.825 46.9182C131.619 46.7122 131.455 46.4664 131.339 46.1859C131.222 45.9078 131.157 45.6074 131.15 45.2921V45.2623H136.343C136.351 45.1928 136.353 45.1258 136.353 45.0637V44.8627C136.353 44.4406 136.289 44.0384 136.162 43.6685C136.035 43.2986 135.844 42.9709 135.598 42.6954C135.353 42.4198 135.04 42.1964 134.673 42.035C134.3 41.8662 133.868 41.7843 133.384 41.7843ZM135.487 44.5921H131.16L131.162 44.5623C131.18 44.2917 131.249 44.031 131.366 43.7827C131.483 43.537 131.641 43.3135 131.84 43.1199C132.039 42.9263 132.27 42.7723 132.53 42.6581C132.791 42.5464 133.079 42.4893 133.384 42.4893C134.04 42.4893 134.553 42.6879 134.911 43.0802C135.266 43.4724 135.459 43.9689 135.487 44.5623V44.5921ZM131.222 44.535H135.427C135.395 43.9689 135.209 43.4923 134.869 43.1174C134.524 42.7376 134.025 42.5439 133.384 42.5439C133.086 42.5439 132.806 42.5986 132.553 42.7078C132.299 42.817 132.071 42.9685 131.88 43.1571C131.686 43.3458 131.532 43.5643 131.418 43.8051C131.306 44.0384 131.242 44.2842 131.222 44.535Z" fill="white"/>
<path d="M139.191 48.1771H138.282V41.9161H139.191V44.4433H142.763V41.9161H143.672V48.1771H142.763V45.208H139.191V48.1771Z" fill="white"/>
<path d="M143.7 48.2043H142.734V45.2352H139.221V48.2043H138.256V41.8862H139.221V44.4134H142.734V41.8862H143.7V48.2043ZM142.789 48.1472H143.64V41.9458H142.789V44.473H139.159V41.9458H138.308V48.1472H139.159V45.1781H142.789V48.1472Z" fill="white"/>
<path d="M144.954 41.915H150.45V42.6772H148.082V48.1735H147.174V42.6772H144.954V41.915Z" fill="white"/>
<path d="M147.148 48.2036V42.7072H144.928V41.888H150.484V42.7072H148.116V48.2036H147.148ZM147.202 48.1465H148.054V42.6501H150.422V41.9451H144.983V42.6501H147.202V48.1465Z" fill="white"/>
<path d="M152.702 51.3872H151.793V41.9162H152.702V42.9986H152.742C153 42.589 153.345 42.2787 153.779 42.0701C154.211 41.8616 154.651 41.7549 155.097 41.7549C155.589 41.7549 156.031 41.8393 156.428 42.0081C156.825 42.1769 157.163 42.4102 157.443 42.7032C157.724 42.9961 157.942 43.3462 158.099 43.7459C158.255 44.148 158.332 44.58 158.332 45.0442C158.332 45.5085 158.255 45.9404 158.099 46.3426C157.942 46.7448 157.724 47.0924 157.443 47.3853C157.163 47.6782 156.823 47.9116 156.428 48.0804C156.031 48.2492 155.586 48.3336 155.097 48.3336C154.651 48.3336 154.211 48.2294 153.779 48.0183C153.347 47.8098 153.002 47.5069 152.742 47.1147H152.702V51.3872ZM157.369 45.0467C157.369 44.6992 157.314 44.3715 157.207 44.0636C157.101 43.7558 156.947 43.4877 156.746 43.2618C156.545 43.0334 156.296 42.8546 156.003 42.7206C155.708 42.5865 155.375 42.5195 155.001 42.5195C154.653 42.5195 154.333 42.584 154.037 42.7131C153.742 42.8422 153.489 43.021 153.275 43.2469C153.062 43.4753 152.893 43.7409 152.774 44.0487C152.652 44.3566 152.593 44.6892 152.593 45.0442C152.593 45.4017 152.652 45.7319 152.774 46.0397C152.893 46.3476 153.062 46.6132 153.275 46.8367C153.489 47.0601 153.745 47.2363 154.037 47.3654C154.333 47.4945 154.653 47.5591 155.001 47.5591C155.375 47.5591 155.711 47.4945 156.003 47.3654C156.299 47.2363 156.545 47.0576 156.746 46.8292C156.947 46.6008 157.101 46.3352 157.207 46.0273C157.317 45.722 157.369 45.3943 157.369 45.0467Z" fill="white"/>
<path d="M152.728 51.4144H151.762V41.8863H152.728V42.9637C152.986 42.5616 153.336 42.2513 153.763 42.0427C154.197 41.8317 154.644 41.7249 155.094 41.7249C155.585 41.7249 156.037 41.8118 156.437 41.9807C156.836 42.152 157.181 42.3878 157.462 42.6832C157.745 42.9786 157.966 43.3337 158.122 43.7358C158.278 44.138 158.358 44.5799 158.358 45.0441C158.358 45.5084 158.278 45.9478 158.122 46.3524C157.966 46.7546 157.742 47.1096 157.462 47.405C157.179 47.7005 156.834 47.9363 156.437 48.1076C156.037 48.2789 155.585 48.3633 155.094 48.3633C154.647 48.3633 154.197 48.2566 153.763 48.0456C153.334 47.837 152.986 47.5366 152.728 47.1518V51.4144ZM151.819 51.3573H152.671V47.0898H152.755L152.763 47.1022C153.016 47.4895 153.361 47.7898 153.788 47.9959C154.215 48.202 154.654 48.3062 155.094 48.3062C155.578 48.3062 156.022 48.2218 156.414 48.0555C156.806 47.8891 157.144 47.6558 157.422 47.3653C157.698 47.0749 157.916 46.7273 158.072 46.3326C158.226 45.9354 158.306 45.5034 158.306 45.0466C158.306 44.5898 158.229 44.1554 158.072 43.7607C157.919 43.3634 157.7 43.0159 157.422 42.7279C157.147 42.4374 156.806 42.2066 156.414 42.0378C156.022 41.8714 155.578 41.787 155.094 41.787C154.654 41.787 154.215 41.8913 153.788 42.0973C153.363 42.3034 153.018 42.6137 152.763 43.0159L152.755 43.0283H152.671V41.9459H151.819V51.3573ZM155.002 47.5888C154.652 47.5888 154.324 47.5217 154.026 47.3926C153.731 47.2635 153.47 47.0823 153.254 46.8589C153.038 46.6355 152.867 46.3624 152.748 46.0545C152.626 45.7442 152.564 45.4066 152.564 45.0466C152.564 44.6866 152.626 44.349 152.748 44.0387C152.869 43.7284 153.038 43.4553 153.254 43.2269C153.47 42.9985 153.728 42.8148 154.026 42.6857C154.324 42.5541 154.652 42.4896 155.002 42.4896C155.379 42.4896 155.719 42.5591 156.017 42.6932C156.315 42.8272 156.566 43.0134 156.769 43.2418C156.97 43.4702 157.129 43.7433 157.236 44.0536C157.343 44.3614 157.397 44.6966 157.397 45.0466C157.397 45.3967 157.343 45.7293 157.236 46.0396C157.129 46.35 156.97 46.623 156.769 46.8514C156.566 47.0823 156.312 47.2635 156.017 47.3926C155.719 47.5242 155.379 47.5888 155.002 47.5888ZM155.002 42.5467C154.659 42.5467 154.339 42.6112 154.051 42.7378C153.76 42.8644 153.507 43.0432 153.299 43.2666C153.088 43.4901 152.921 43.7582 152.802 44.061C152.683 44.3639 152.624 44.6966 152.624 45.0466C152.624 45.3967 152.683 45.7293 152.802 46.0322C152.921 46.3351 153.088 46.6007 153.299 46.8192C153.51 47.0376 153.763 47.2139 154.051 47.3405C154.339 47.4671 154.659 47.5317 155.002 47.5317C155.372 47.5317 155.704 47.4671 155.992 47.3405C156.28 47.2139 156.528 47.0351 156.725 46.8117C156.921 46.5883 157.075 46.3227 157.181 46.0198C157.288 45.7169 157.34 45.3892 157.34 45.0466C157.34 44.704 157.286 44.3763 157.181 44.0735C157.077 43.7706 156.923 43.5049 156.725 43.2815C156.528 43.0581 156.28 42.8793 155.992 42.7478C155.704 42.6137 155.369 42.5467 155.002 42.5467Z" fill="white"/>
<path d="M131.714 7.18359C137.709 7.18359 142.537 12.0122 142.537 18.0076C142.537 24.0029 137.709 28.8315 131.714 28.8315C125.719 28.8315 120.891 24.0029 120.891 18.0076C120.891 12.0147 125.719 7.18359 131.714 7.18359Z" fill="#1E3A8F"/>
<path d="M33.101 7.10785C39.096 7.10785 43.9243 11.9364 43.9243 17.9318C43.9243 23.9272 39.096 28.7558 33.101 28.7558C27.106 28.7558 22.2777 23.9272 22.2777 17.9318C22.2777 11.9364 27.106 7.10785 33.101 7.10785ZM33.101 27.09C38.18 27.09 42.2586 23.0111 42.2586 17.9318C42.2586 12.8525 38.1775 8.77365 33.101 8.77365C28.022 8.77365 23.9409 12.8525 23.9409 17.9318C23.9409 23.0111 28.022 27.09 33.101 27.09Z" fill="white"/>
<path d="M33.0996 28.7855C30.1927 28.7855 27.4646 27.6584 25.419 25.6128C23.3735 23.5671 22.2465 20.8388 22.2465 17.9317C22.2465 15.0246 23.3735 12.2963 25.419 10.2507C27.4646 8.20504 30.1902 7.07796 33.0996 7.07796C36.0065 7.07796 38.7347 8.20504 40.7802 10.2507C42.8257 12.2963 43.9527 15.0246 43.9527 17.9317C43.9527 20.8388 42.8257 23.5671 40.7802 25.6128C38.7322 27.6584 36.0065 28.7855 33.0996 28.7855ZM33.0996 7.13754C30.2076 7.13754 27.4943 8.25717 25.4612 10.2929C23.4282 12.3286 22.3036 15.0395 22.3036 17.9317C22.3036 20.8239 23.4232 23.5373 25.4588 25.5705C27.4943 27.6062 30.2051 28.7259 33.0971 28.7259C35.9892 28.7259 38.6999 27.6062 40.7355 25.5705C42.7711 23.5348 43.8907 20.8239 43.8907 17.9317C43.8907 15.0395 42.7711 12.3261 40.7355 10.2929C38.7024 8.25717 35.9892 7.13754 33.0996 7.13754ZM33.0996 27.1197C30.6346 27.1197 28.326 26.1664 26.5957 24.436C24.8655 22.7057 23.9122 20.3944 23.9122 17.9317C23.9122 15.469 24.8655 13.1577 26.5957 11.4274C28.326 9.69706 30.6371 8.74375 33.0996 8.74375C35.5647 8.74375 37.8733 9.69706 39.6035 11.4274C41.3338 13.1577 42.287 15.469 42.287 17.9317C42.287 20.3969 41.3338 22.7057 39.6035 24.436C37.8733 26.1664 35.5622 27.1197 33.0996 27.1197ZM33.0996 8.80334C30.652 8.80334 28.3557 9.74919 26.6354 11.4696C24.9151 13.19 23.9693 15.4839 23.9693 17.9317C23.9693 20.3795 24.9151 22.6759 26.6354 24.3938C28.3557 26.1142 30.6495 27.0601 33.0996 27.0601C35.5473 27.0601 37.8435 26.1142 39.5613 24.3938C41.2817 22.6734 42.2275 20.3795 42.2275 17.9317C42.2275 15.4839 41.2792 13.1875 39.5613 11.4696C37.841 9.74919 35.5473 8.80334 33.0996 8.80334Z" fill="white"/>
<path d="M68.4958 7.0299V28.8243H66.7531V8.68577H51.0618V28.8243H49.3191V7.0299H68.4958Z" fill="white"/>
<path d="M68.5267 28.854H66.7244V8.71545H51.0902V28.854H49.288V7H68.5242V28.854H68.5267ZM66.7815 28.7944H68.4671V7.05958H49.3476V28.7969H51.0331V8.65587H66.784V28.7944H66.7815Z" fill="white"/>
<path d="M76.8703 28.8243H75.1276V7.0299H76.8703V24.4649L92.5616 9.20959V7.0299H94.3043V28.8243H92.5616V11.3893L76.8703 26.6471V28.8243Z" fill="white"/>
<path d="M94.3352 28.854H92.5329V11.4587L76.8987 26.6594V28.8565H75.0965V7H76.8987V24.3953L92.5329 9.19458V7H94.3352V28.854ZM92.5925 28.7944H94.2781V7.05958H92.5925V9.22189L92.5826 9.22934L76.8416 24.5343V7.05958H75.1561V28.7969H76.8416V26.6346L76.8515 26.6271L92.5925 11.3221V28.7944Z" fill="white"/>
<path d="M149.223 9.64404V28.8243H147.48V7.0299H149.223L161.429 21.9377L173.635 7.0299H175.377V28.8243H173.635V9.64404L161.429 24.5518L149.223 9.64404Z" fill="white"/>
<path d="M175.406 28.854H173.604V9.72585L161.427 24.5989L149.251 9.72833V28.8565H147.449V7H149.236L149.246 7.00993L161.427 21.8904L173.618 7H175.406V28.854ZM175.349 28.7944V7.05958H173.648L161.43 21.9847L149.209 7.05958H147.508V28.7969H149.194V9.562L161.427 24.5045L173.661 9.562V28.7944H175.349Z" fill="white"/>
<path d="M2.62101 7.03983H4.85767V28.8243H2.62101V7.03983ZM6.04178 17.6528L16.0409 7.03983L17.7588 7.0299L8.45964 17.0172L19.7869 28.8268H16.8303L6.04178 17.6528Z" fill="white"/>
<path d="M19.855 28.854H16.8165L5.99819 17.6527L6.01805 17.6328L16.0247 7.00993L17.8244 7L8.50046 17.0146L19.855 28.854ZM16.8414 28.7944H19.7185L8.41855 17.0171L8.4384 16.9973L17.6879 7.05958L16.0495 7.06951L6.08011 17.6527L16.8414 28.7944ZM4.88359 28.854H2.58984V7.00993H4.88359V28.854ZM2.64942 28.7944H4.8265V7.06951H2.64942V28.7944Z" fill="white"/>
<path d="M101.083 7.03983H103.319V28.8243H101.083V7.03983ZM104.504 17.6528L114.503 7.03983L116.221 7.0299L106.924 17.0172L118.251 28.8268H115.292L104.504 17.6528Z" fill="white"/>
<path d="M118.317 28.8542H115.276L104.46 17.6529L104.48 17.633L114.487 7.01263L116.286 7.00022L106.962 17.0149L118.317 28.8542ZM115.301 28.7946H118.18L106.881 17.0149L106.9 16.995L116.152 7.05731L114.514 7.06724L104.542 17.6529L115.301 28.7946ZM103.346 28.8542H101.052V7.01015H103.346V28.8542ZM101.109 28.7946H103.286V7.06973H101.109V28.7946Z" fill="white"/>
</svg>
