<!-- icon666.com - MILLIONS vector ICONS FREE --><svg viewBox="0 0 64 64" xmlns="http://www.w3.org/2000/svg"><g id="_12_Printer" data-name="12 Printer"><path d="m53 11h-42a3 3 0 0 0 -3 3v11h48v-11a3 3 0 0 0 -3-3z" fill="#424242"></path><path d="m44 2h-24a3 3 0 0 0 -3 3v20h30v-20a3 3 0 0 0 -3-3z" fill="#e0e0e0"></path><rect fill="#606060" height="28" rx="3" width="60" x="2" y="23"></rect><rect fill="#212121" height="12" rx="1" width="32" x="16" y="39"></rect><path d="m44.561 44.8584a1 1 0 0 0 -.99-.8584h-22.8566a1 1 0 0 0 -.99.8584l-2.2856 16a1.0061 1.0061 0 0 0 .9899 1.1416h27.4282a1.0062 1.0062 0 0 0 .99-1.1416z" fill="#e0e0e0"></path><path d="m59 23h-54a3 3 0 0 0 -3 3v9h60v-9a3 3 0 0 0 -3-3z" fill="#1976d2"></path><path d="m41 58h-18a1 1 0 0 1 0-2h18a1 1 0 0 1 0 2z" fill="#424242"></path><path d="m40.55 54h-17.1a1.0031 1.0031 0 0 1 0-2h17.1a1.0031 1.0031 0 0 1 0 2z" fill="#424242"></path><path d="m40 50h-16a1 1 0 0 1 0-2h16a1 1 0 0 1 0 2z" fill="#424242"></path><path d="m56 26a3 3 0 1 0 0 6 3 3 0 0 0 0-6z" fill="#e0e0e0"></path><g fill="#1976d2"><path d="m32 16a2.5 2.5 0 1 0 0 5 2.5 2.5 0 1 0 0-5z"></path><path d="m40.2524 9.4363a11.8493 11.8493 0 0 0 -16.4878-.1943 1.0006 1.0006 0 0 0 1.38 1.4482 9.84 9.84 0 0 1 13.6938.16c.9051.9337 2.3428-.511 1.414-1.4139z"></path><path d="m31.93 9.0657a8.679 8.679 0 0 0 -6.0093 2.4106c-.9534.88.455 2.3586 1.3789 1.4483a6.7408 6.7408 0 0 1 9.3828.11c.9052.9334 2.3431-.5108 1.4141-1.414a8.6611 8.6611 0 0 0 -6.1665-2.5549z"></path><path d="m31.9579 12.1541a5.6048 5.6048 0 0 0 -3.8813 1.5566c-.9534.88.455 2.3586 1.3789 1.4482a3.7146 3.7146 0 0 1 5.0713.0591c.9052.9335 2.3429-.5111 1.414-1.414a5.5957 5.5957 0 0 0 -3.9829-1.6499z"></path></g></g></svg>