<svg width="178" height="55" viewBox="0 0 178 55" fill="none" xmlns="http://www.w3.org/2000/svg">
<path d="M20.5795 44.4823C20.9369 44.4823 21.2696 44.5096 21.5824 44.5617L23.8289 41.9128H24.8442L22.409 44.7479C23.1488 44.9788 23.7247 45.3735 24.1343 45.9321C24.5439 46.4907 24.8691 47.2354 25.1099 48.1713H24.0921C23.968 47.6177 23.8091 47.156 23.6179 46.7861C23.4268 46.4162 23.186 46.1183 22.8956 45.8899C22.6051 45.6615 22.27 45.5026 21.8852 45.4083C21.5029 45.3139 21.0635 45.2643 20.5745 45.2543V48.1713H19.6709V41.9103H20.5795V44.4823Z" fill="#323332"/>
<path d="M25.153 48.2033H24.0756L24.0707 48.181C23.9465 47.6323 23.7877 47.1706 23.599 46.8032C23.4103 46.4382 23.1696 46.1403 22.8841 45.9169C22.5986 45.6935 22.2635 45.5321 21.8861 45.4402C21.5138 45.3484 21.0868 45.2987 20.6102 45.2888V48.2033H19.6445V41.8852H20.6102V44.4547C20.9503 44.4571 21.2755 44.482 21.5734 44.5316L23.8175 41.8852H24.9097L22.4621 44.7352C23.1844 44.9685 23.7554 45.3658 24.16 45.9169C24.5696 46.4755 24.8998 47.2326 25.1406 48.1661L25.153 48.2033ZM24.1203 48.1462H25.076C24.8377 47.2351 24.515 46.4978 24.1129 45.9516C23.7082 45.403 23.1323 45.0083 22.4025 44.7774L22.3603 44.765L24.7831 41.9448H23.8423L21.5932 44.5962L21.5783 44.5937C21.2705 44.5415 20.9329 44.5142 20.5804 44.5142H20.5506V41.9473H19.6991V48.1487H20.5506V45.2317H20.5804C21.0719 45.2416 21.5138 45.2938 21.8986 45.3856C22.2833 45.48 22.6284 45.6438 22.9188 45.8722C23.2093 46.1006 23.455 46.4059 23.6487 46.7783C23.8373 47.1433 23.9962 47.6025 24.1203 48.1462Z" fill="#323332"/>
<path d="M33.2035 45.0453C33.2035 45.517 33.1216 45.954 32.9553 46.3561C32.789 46.7583 32.5606 47.1059 32.2677 47.3988C31.9723 47.6942 31.6222 47.9226 31.2102 48.0865C30.8006 48.2503 30.3488 48.3347 29.8597 48.3347C29.3781 48.3347 28.9313 48.2528 28.5217 48.0865C28.1121 47.9226 27.7596 47.6917 27.4642 47.3988C27.1688 47.1034 26.9404 46.7558 26.7766 46.3561C26.6103 45.954 26.5283 45.517 26.5283 45.0453C26.5283 44.5737 26.6103 44.1367 26.7766 43.7345C26.9404 43.3324 27.1713 42.9848 27.4642 42.6919C27.7596 42.3965 28.1096 42.1681 28.5217 42.0042C28.9313 41.8404 29.3781 41.7559 29.8597 41.7559C30.3488 41.7559 30.8006 41.8379 31.2102 42.0042C31.6198 42.1705 31.9723 42.3989 32.2677 42.6919C32.5631 42.9873 32.7915 43.3349 32.9553 43.7345C33.1216 44.1342 33.2035 44.5712 33.2035 45.0453ZM32.2404 45.0453C32.2404 44.6978 32.1858 44.3701 32.074 44.0622C31.9623 43.7544 31.8035 43.4863 31.5999 43.2604C31.3939 43.032 31.1456 42.8532 30.8502 42.7192C30.5548 42.5851 30.2271 42.5181 29.8597 42.5181C29.4948 42.5181 29.1671 42.5851 28.8767 42.7192C28.5863 42.8532 28.3405 43.0345 28.1345 43.2604C27.9284 43.4888 27.772 43.7544 27.6603 44.0622C27.5486 44.3701 27.494 44.6978 27.494 45.0453C27.494 45.3929 27.5486 45.7206 27.6603 46.0284C27.772 46.3363 27.9309 46.6044 28.1345 46.8303C28.3405 47.0587 28.5863 47.2374 28.8767 47.3665C29.1671 47.4956 29.4948 47.5602 29.8597 47.5602C30.2246 47.5602 30.5548 47.4956 30.8502 47.3665C31.1456 47.2374 31.3939 47.0587 31.5999 46.8303C31.8059 46.6019 31.9623 46.3363 32.074 46.0284C32.1858 45.7206 32.2404 45.3929 32.2404 45.0453Z" fill="#323332"/>
<path d="M29.8607 48.3643C29.3766 48.3643 28.9248 48.2799 28.5127 48.1161C28.1006 47.9497 27.7432 47.7164 27.4478 47.421C27.1524 47.1255 26.919 46.7705 26.7527 46.3683C26.5864 45.9662 26.502 45.5218 26.502 45.0476C26.502 44.5735 26.5864 44.1291 26.7527 43.7269C26.919 43.3247 27.1524 42.9697 27.4478 42.6743C27.7432 42.3789 28.1006 42.1455 28.5127 41.9792C28.9248 41.8128 29.3791 41.7284 29.8607 41.7284C30.3522 41.7284 30.8114 41.8128 31.221 41.9767C31.6331 42.143 31.9931 42.3764 32.2885 42.6718C32.5839 42.9672 32.8172 43.3222 32.9835 43.7244C33.1499 44.1266 33.2343 44.571 33.2343 45.0451C33.2343 45.5193 33.1499 45.9637 32.9835 46.3659C32.8172 46.768 32.5839 47.123 32.2885 47.4185C31.9931 47.7139 31.6331 47.9473 31.2235 48.1136C30.8114 48.2799 30.3522 48.3643 29.8607 48.3643ZM29.8607 41.7831C29.384 41.7831 28.9397 41.865 28.5351 42.0288C28.1304 42.1927 27.7779 42.4211 27.4875 42.7115C27.197 43.002 26.9687 43.3496 26.8048 43.7443C26.641 44.139 26.5591 44.5784 26.5591 45.0451C26.5591 45.5119 26.641 45.9488 26.8048 46.346C26.9687 46.7407 27.197 47.0908 27.4875 47.3787C27.7779 47.6692 28.1304 47.8976 28.5351 48.0615C28.9397 48.2253 29.3865 48.3072 29.8631 48.3072C30.3472 48.3072 30.799 48.2253 31.2037 48.0615C31.6083 47.9001 31.9608 47.6692 32.2512 47.3787C32.5417 47.0883 32.7701 46.7407 32.9339 46.346C33.0977 45.9488 33.1796 45.5119 33.1796 45.0451C33.1796 44.5784 33.0977 44.1415 32.9339 43.7443C32.7701 43.3471 32.5417 42.9995 32.2512 42.7115C31.9608 42.4211 31.6083 42.1927 31.2037 42.0288C30.7965 41.865 30.3472 41.7831 29.8607 41.7831ZM29.8607 47.5873C29.4933 47.5873 29.1581 47.5203 28.8652 47.3912C28.5723 47.2621 28.3191 47.0784 28.113 46.85C27.907 46.6216 27.7457 46.3485 27.6315 46.0382C27.5198 45.7303 27.4627 45.3952 27.4627 45.0451C27.4627 44.6951 27.5198 44.36 27.6315 44.0521C27.7432 43.7418 27.9045 43.4687 28.113 43.2403C28.3191 43.0119 28.5723 42.8257 28.8652 42.6917C29.1581 42.5576 29.4908 42.4881 29.8607 42.4881C30.2281 42.4881 30.5657 42.5576 30.8636 42.6917C31.159 42.8257 31.4147 43.0119 31.6232 43.2403C31.8292 43.4687 31.9906 43.7418 32.1048 44.0521C32.2165 44.3624 32.2736 44.6951 32.2736 45.0451C32.2736 45.3952 32.2165 45.7278 32.1048 46.0382C31.9931 46.3485 31.8317 46.6216 31.6232 46.85C31.4147 47.0808 31.1614 47.2621 30.8636 47.3912C30.5657 47.5227 30.2305 47.5873 29.8607 47.5873ZM29.8607 42.5452C29.5007 42.5452 29.173 42.6122 28.89 42.7438C28.6046 42.8754 28.3588 43.0541 28.1577 43.2776C27.9567 43.501 27.7978 43.7666 27.6886 44.072C27.5793 44.3749 27.5222 44.7025 27.5222 45.0451C27.5222 45.3877 27.5768 45.7154 27.6886 46.0183C27.7978 46.3212 27.9567 46.5868 28.1577 46.8102C28.3588 47.0337 28.607 47.2124 28.89 47.339C29.1755 47.4656 29.5007 47.5302 29.8607 47.5302C30.2206 47.5302 30.5508 47.4656 30.8387 47.339C31.1267 47.2124 31.3749 47.0337 31.5785 46.8102C31.7796 46.5868 31.9384 46.3212 32.0477 46.0183C32.1569 45.7154 32.214 45.3877 32.214 45.0451C32.214 44.7025 32.1594 44.3749 32.0477 44.072C31.9384 43.7691 31.7796 43.5035 31.5785 43.2776C31.3774 43.0541 31.1292 42.8754 30.8387 42.7438C30.5508 42.6122 30.2206 42.5452 29.8607 42.5452Z" fill="#323332"/>
<path d="M36.0154 48.1754H35.1068V41.9144H40.3894V48.1754H39.4809V42.6791H36.0154V48.1754Z" fill="#323332"/>
<path d="M39.452 48.2026V42.7062H36.0461V48.2026H35.0805V41.8845H40.4201V48.2026H39.452ZM39.5091 48.1455H40.3606V41.9441H35.1351V48.1455H35.9866V42.6492H39.5091V48.1455Z" fill="#323332"/>
<path d="M47.4649 43.0794L43.6271 48.1761H42.6912V41.9151H43.6271V46.8231L47.4649 41.9151H48.4008V48.1761H47.4649V43.0794Z" fill="#323332"/>
<path d="M48.4313 48.2033H47.4383V43.1637L43.6427 48.2033H42.6647V41.8852H43.6576V46.7386L47.4532 41.8852H48.4313V48.2033ZM47.493 48.1462H48.3717V41.9448H47.4781L43.5956 46.9074V41.9448H42.7168V48.1462H43.6105L47.493 42.9924V48.1462Z" fill="#323332"/>
<path d="M51.6647 51.3855H50.7562V41.9146H51.6647V42.9969H51.7044C51.9626 42.5873 52.3077 42.277 52.7421 42.0685C53.174 41.8599 53.6134 41.7532 54.0603 41.7532C54.5518 41.7532 54.9936 41.8376 55.3908 42.0064C55.788 42.1752 56.1256 42.4086 56.4061 42.7015C56.6866 42.9945 56.9051 43.3445 57.0615 43.7442C57.2179 44.1464 57.2948 44.5783 57.2948 45.0426C57.2948 45.5068 57.2179 45.9388 57.0615 46.341C56.9051 46.7431 56.6866 47.0907 56.4061 47.3836C56.1256 47.6766 55.7855 47.9099 55.3908 48.0788C54.9936 48.2476 54.5493 48.332 54.0603 48.332C53.6134 48.332 53.174 48.2277 52.7421 48.0167C52.3102 47.8082 51.9651 47.5053 51.7044 47.113H51.6647V51.3855ZM56.3317 45.0451C56.3317 44.6975 56.2771 44.3698 56.1703 44.062C56.0636 43.7541 55.9097 43.486 55.7086 43.2601C55.5075 43.0317 55.2593 42.853 54.9663 42.7189C54.6734 42.5848 54.3383 42.5178 53.9634 42.5178C53.6159 42.5178 53.2957 42.5824 53.0003 42.7115C52.7049 42.8405 52.4517 43.0193 52.2382 43.2452C52.0247 43.4736 51.8559 43.7392 51.7367 44.0471C51.6151 44.3549 51.5555 44.6876 51.5555 45.0426C51.5555 45.4001 51.6151 45.7302 51.7367 46.0381C51.8559 46.3459 52.0247 46.6116 52.2382 46.835C52.4517 47.0584 52.7073 47.2347 53.0003 47.3638C53.2957 47.4929 53.6159 47.5574 53.9634 47.5574C54.3383 47.5574 54.6734 47.4929 54.9663 47.3638C55.2617 47.2347 55.5075 47.0559 55.7086 46.8275C55.9097 46.5991 56.0636 46.3335 56.1703 46.0257C56.2795 45.7203 56.3317 45.3926 56.3317 45.0451Z" fill="#323332"/>
<path d="M51.6907 51.4127H50.725V41.8847H51.6907V42.9621C51.9488 42.5599 52.2989 42.2496 52.7258 42.0411C53.1602 41.83 53.6071 41.7233 54.0564 41.7233C54.5479 41.7233 54.9997 41.8102 55.3994 41.979C55.799 42.1503 56.1441 42.3861 56.4246 42.6816C56.7076 42.977 56.9285 43.332 57.0849 43.7342C57.2413 44.1363 57.3208 44.5782 57.3208 45.0425C57.3208 45.5067 57.2413 45.9461 57.0849 46.3508C56.9285 46.753 56.7051 47.108 56.4246 47.4034C56.1416 47.6988 55.7966 47.9347 55.3994 48.106C54.9997 48.2772 54.5479 48.3617 54.0564 48.3617C53.6096 48.3617 53.1602 48.2549 52.7258 48.0439C52.2964 47.8354 51.9488 47.535 51.6907 47.1502V51.4127ZM50.7821 51.3556H51.6336V47.0881H51.718L51.7254 47.1005C51.9786 47.4878 52.3237 47.7882 52.7506 47.9942C53.1776 48.2003 53.617 48.3046 54.0564 48.3046C54.5405 48.3046 54.9848 48.2201 55.377 48.0538C55.7693 47.8875 56.1069 47.6541 56.3849 47.3637C56.6604 47.0732 56.8789 46.7256 57.0353 46.3309C57.1892 45.9337 57.2686 45.5017 57.2686 45.045C57.2686 44.5882 57.1917 44.1537 57.0353 43.759C56.8814 43.3618 56.6629 43.0142 56.3849 42.7262C56.1094 42.4358 55.7693 42.2049 55.377 42.0361C54.9848 41.8698 54.5405 41.7854 54.0564 41.7854C53.617 41.7854 53.1776 41.8896 52.7506 42.0957C52.3262 42.3017 51.9811 42.612 51.7254 43.0142L51.718 43.0266H51.6336V41.9442H50.7821V51.3556ZM53.9621 47.5871C53.612 47.5871 53.2844 47.5201 52.9865 47.391C52.6911 47.2619 52.4304 47.0807 52.2144 46.8572C51.9985 46.6338 51.8272 46.3607 51.708 46.0529C51.5864 45.7426 51.5243 45.4049 51.5243 45.045C51.5243 44.685 51.5864 44.3474 51.708 44.037C51.8297 43.7267 51.9985 43.4536 52.2144 43.2252C52.4304 42.9968 52.6886 42.8131 52.9865 42.684C53.2844 42.5525 53.612 42.4879 53.9621 42.4879C54.3394 42.4879 54.6795 42.5574 54.9774 42.6915C55.2753 42.8255 55.526 43.0117 55.7295 43.2401C55.9306 43.4685 56.0895 43.7416 56.1962 44.0519C56.303 44.3598 56.3576 44.6949 56.3576 45.045C56.3576 45.395 56.303 45.7277 56.1962 46.038C56.0895 46.3483 55.9306 46.6214 55.7295 46.8498C55.526 47.0807 55.2728 47.2619 54.9774 47.391C54.682 47.5225 54.3394 47.5871 53.9621 47.5871ZM53.9621 42.545C53.6195 42.545 53.2993 42.6096 53.0113 42.7362C52.7209 42.8628 52.4677 43.0415 52.2591 43.265C52.0481 43.4884 51.8818 43.7565 51.7626 44.0594C51.6435 44.3622 51.5839 44.6949 51.5839 45.045C51.5839 45.395 51.6435 45.7277 51.7626 46.0305C51.8818 46.3334 52.0481 46.599 52.2591 46.8175C52.4701 47.036 52.7233 47.2122 53.0113 47.3388C53.2993 47.4655 53.6195 47.53 53.9621 47.53C54.3319 47.53 54.6646 47.4655 54.9525 47.3388C55.2405 47.2122 55.4888 47.0335 55.6849 46.8101C55.881 46.5866 56.0349 46.321 56.1416 46.0181C56.2484 45.7152 56.3005 45.3875 56.3005 45.045C56.3005 44.7024 56.2459 44.3747 56.1416 44.0718C56.0374 43.7689 55.8835 43.5033 55.6849 43.2799C55.4888 43.0564 55.2405 42.8777 54.9525 42.7461C54.6646 42.612 54.3319 42.545 53.9621 42.545Z" fill="#323332"/>
<path d="M65.466 45.0453C65.466 45.517 65.3841 45.954 65.2178 46.3561C65.0515 46.7583 64.8231 47.1059 64.5302 47.3988C64.2372 47.6917 63.8847 47.9226 63.4727 48.0865C63.0631 48.2503 62.6113 48.3347 62.1222 48.3347C61.6406 48.3347 61.1938 48.2528 60.7842 48.0865C60.3746 47.9226 60.0221 47.6917 59.7267 47.3988C59.4313 47.1034 59.2029 46.7558 59.0391 46.3561C58.8728 45.954 58.7908 45.517 58.7908 45.0453C58.7908 44.5737 58.8728 44.1367 59.0391 43.7345C59.2029 43.3324 59.4338 42.9848 59.7267 42.6919C60.0221 42.3965 60.3721 42.1681 60.7842 42.0042C61.1938 41.8404 61.6406 41.7559 62.1222 41.7559C62.6113 41.7559 63.0631 41.8379 63.4727 42.0042C63.8823 42.1705 64.2348 42.3989 64.5302 42.6919C64.8256 42.9873 65.054 43.3349 65.2178 43.7345C65.3841 44.1342 65.466 44.5712 65.466 45.0453ZM64.5029 45.0453C64.5029 44.6978 64.4482 44.3701 64.3365 44.0622C64.2248 43.7544 64.066 43.4863 63.8624 43.2604C63.6564 43.032 63.4081 42.8532 63.1127 42.7192C62.8173 42.5851 62.4896 42.5181 62.1222 42.5181C61.7573 42.5181 61.4296 42.5851 61.1392 42.7192C60.8488 42.8532 60.603 43.0345 60.397 43.2604C60.1909 43.4888 60.0345 43.7544 59.9228 44.0622C59.8111 44.3701 59.7565 44.6978 59.7565 45.0453C59.7565 45.3929 59.8111 45.7206 59.9228 46.0284C60.0345 46.3363 60.1934 46.6044 60.397 46.8303C60.603 47.0587 60.8488 47.2374 61.1392 47.3665C61.4296 47.4956 61.7573 47.5602 62.1222 47.5602C62.4871 47.5602 62.8173 47.4956 63.1127 47.3665C63.4081 47.2374 63.6564 47.0587 63.8624 46.8303C64.0684 46.6019 64.2248 46.3363 64.3365 46.0284C64.4482 45.7206 64.5029 45.3929 64.5029 45.0453Z" fill="#323332"/>
<path d="M62.1232 48.3643C61.6391 48.3643 61.1873 48.2799 60.7752 48.1161C60.3631 47.9497 60.0057 47.7164 59.7103 47.421C59.4148 47.1255 59.1815 46.7705 59.0152 46.3683C58.8489 45.9662 58.7645 45.5218 58.7645 45.0476C58.7645 44.5735 58.8489 44.1291 59.0152 43.7269C59.1815 43.3247 59.4148 42.9697 59.7103 42.6743C60.0057 42.3789 60.3631 42.1455 60.7752 41.9792C61.1873 41.8128 61.6416 41.7284 62.1232 41.7284C62.6147 41.7284 63.0739 41.8128 63.4835 41.9767C63.8956 42.143 64.2556 42.3764 64.551 42.6718C64.8464 42.9672 65.0797 43.3222 65.246 43.7244C65.4124 44.1266 65.4968 44.571 65.4968 45.0451C65.4968 45.5193 65.4124 45.9637 65.246 46.3659C65.0797 46.768 64.8464 47.123 64.551 47.4185C64.2556 47.7139 63.8956 47.9473 63.486 48.1136C63.0739 48.2799 62.6147 48.3643 62.1232 48.3643ZM62.1232 41.7831C61.6465 41.7831 61.2022 41.865 60.7976 42.0288C60.3929 42.1927 60.0404 42.4211 59.75 42.7115C59.4595 43.002 59.2312 43.3496 59.0673 43.7443C58.9035 44.139 58.8216 44.5784 58.8216 45.0451C58.8216 45.5119 58.9035 45.9488 59.0673 46.346C59.2312 46.7407 59.4595 47.0908 59.75 47.3787C60.0404 47.6692 60.3929 47.8976 60.7976 48.0615C61.2022 48.2253 61.649 48.3072 62.1256 48.3072C62.6097 48.3072 63.0615 48.2253 63.4661 48.0615C63.8708 47.9001 64.2233 47.6692 64.5137 47.3787C64.8042 47.0883 65.0325 46.7407 65.1964 46.346C65.3602 45.9488 65.4421 45.5119 65.4421 45.0451C65.4421 44.5784 65.3602 44.1415 65.1964 43.7443C65.0325 43.3471 64.8042 42.9995 64.5137 42.7115C64.2233 42.4211 63.8708 42.1927 63.4661 42.0288C63.059 41.865 62.6072 41.7831 62.1232 41.7831ZM62.1232 47.5873C61.7558 47.5873 61.4206 47.5203 61.1277 47.3912C60.8348 47.2621 60.5816 47.0784 60.3755 46.85C60.1695 46.6216 60.0081 46.3485 59.894 46.0382C59.7822 45.7303 59.7252 45.3952 59.7252 45.0451C59.7252 44.6951 59.7822 44.36 59.894 44.0521C60.0057 43.7418 60.167 43.4687 60.3755 43.2403C60.5816 43.0119 60.8348 42.8257 61.1277 42.6917C61.4206 42.5576 61.7533 42.4881 62.1232 42.4881C62.4906 42.4881 62.8282 42.5576 63.1261 42.6917C63.4215 42.8257 63.6772 43.0119 63.8857 43.2403C64.0917 43.4687 64.2531 43.7418 64.3673 44.0521C64.479 44.3624 64.5361 44.6951 64.5361 45.0451C64.5361 45.3952 64.479 45.7278 64.3673 46.0382C64.2556 46.3485 64.0942 46.6216 63.8857 46.85C63.6772 47.0808 63.4239 47.2621 63.1261 47.3912C62.8282 47.5227 62.4906 47.5873 62.1232 47.5873ZM62.1232 42.5452C61.7632 42.5452 61.4355 42.6122 61.1525 42.7438C60.8671 42.8754 60.6213 43.0541 60.4202 43.2776C60.2192 43.501 60.0603 43.7666 59.951 44.072C59.8418 44.3749 59.7847 44.7025 59.7847 45.0451C59.7847 45.3877 59.8393 45.7154 59.951 46.0183C60.0603 46.3212 60.2192 46.5868 60.4202 46.8102C60.6213 47.0337 60.8695 47.2124 61.1525 47.339C61.438 47.4656 61.7632 47.5302 62.1232 47.5302C62.4831 47.5302 62.8133 47.4656 63.1012 47.339C63.3892 47.2124 63.6374 47.0337 63.841 46.8102C64.0421 46.5868 64.2009 46.3212 64.3102 46.0183C64.4194 45.7154 64.4765 45.3877 64.4765 45.0451C64.4765 44.7025 64.4219 44.3749 64.3102 44.072C64.2009 43.7691 64.0421 43.5035 63.841 43.2776C63.6399 43.0541 63.3917 42.8754 63.1012 42.7438C62.8133 42.6122 62.4831 42.5452 62.1232 42.5452Z" fill="#323332"/>
<path d="M70.2302 48.1761H67.3679V41.9151H70.0688C70.8632 41.9151 71.4515 42.069 71.8338 42.3769C72.2161 42.6847 72.4097 43.0918 72.4097 43.6008C72.4097 43.8316 72.375 44.0278 72.303 44.1817C72.231 44.3381 72.1317 44.4672 72.0026 44.569C71.8735 44.6708 71.7246 44.7552 71.5558 44.8172C71.387 44.8793 71.2082 44.9389 71.022 44.991C71.2529 45.0084 71.4714 45.0481 71.6774 45.1126C71.8834 45.1747 72.0622 45.2666 72.2186 45.3857C72.375 45.5074 72.4966 45.6588 72.586 45.84C72.6753 46.0237 72.72 46.2447 72.72 46.5029C72.72 47.0118 72.5115 47.4165 72.092 47.7193C71.67 48.0222 71.0518 48.1761 70.2302 48.1761ZM70.0167 44.6832C70.4635 44.6832 70.8135 44.6137 71.0667 44.4746C71.3199 44.3356 71.449 44.06 71.449 43.6455C71.449 43.4121 71.3994 43.2284 71.3026 43.0943C71.2033 42.9603 71.0667 42.8585 70.888 42.7915C70.7093 42.7244 70.4958 42.6822 70.245 42.6648C69.9943 42.6475 69.7188 42.6375 69.4159 42.6375H68.279V44.6832H70.0167ZM68.2765 47.4537H69.4408C69.7709 47.4537 70.0738 47.4463 70.3493 47.4338C70.6249 47.4214 70.8657 47.3792 71.0717 47.3122C71.2777 47.2452 71.4366 47.1384 71.5533 46.9969C71.67 46.8529 71.727 46.6518 71.727 46.3912C71.727 45.9592 71.5682 45.6787 71.2529 45.5421C70.9352 45.4081 70.5107 45.341 69.9745 45.341H68.2765V47.4537Z" fill="#323332"/>
<path d="M70.2288 48.2033H67.3368V41.8852H70.0674C70.8643 41.8852 71.465 42.0416 71.8498 42.3519C72.2395 42.6647 72.4356 43.0843 72.4356 43.5982C72.4356 43.834 72.3984 44.0326 72.3264 44.1915C72.2544 44.3504 72.1502 44.4844 72.0161 44.5912C71.8845 44.6955 71.7306 44.7799 71.5594 44.8419C71.4327 44.8891 71.3012 44.9338 71.1622 44.976C71.3409 44.9983 71.5147 45.0331 71.676 45.0827C71.8845 45.1448 72.0682 45.2391 72.2271 45.3608C72.386 45.4824 72.5126 45.6388 72.6044 45.825C72.6963 46.0112 72.741 46.2371 72.741 46.5003C72.741 47.0167 72.525 47.4337 72.1005 47.7416C71.6835 48.0494 71.0529 48.2033 70.2288 48.2033ZM70.2288 48.1462C71.038 48.1462 71.6586 47.9948 72.0707 47.6969C72.4803 47.4015 72.6864 46.9993 72.6864 46.5028C72.6864 46.2495 72.6417 46.0311 72.5548 45.8523C72.4679 45.6736 72.3463 45.5246 72.1948 45.408C72.0434 45.2913 71.8622 45.1994 71.6611 45.1374C71.4601 45.0753 71.2416 45.0356 71.0107 45.0182L70.8519 45.0058L71.0058 44.9611C71.192 44.909 71.3707 44.8494 71.5395 44.7873C71.7058 44.7253 71.8523 44.6458 71.9789 44.544C72.103 44.4447 72.2023 44.3181 72.2718 44.1667C72.3413 44.0152 72.3761 43.8241 72.3761 43.5957C72.3761 43.0992 72.1874 42.6945 71.8126 42.3941C71.4352 42.0913 70.8469 41.9398 70.0649 41.9398H67.3914V48.1462H70.2288ZM69.4394 47.4809H68.2478V45.3111H69.9756C70.5118 45.3111 70.9462 45.3807 71.2639 45.5147C71.5916 45.6537 71.7555 45.9492 71.7555 46.3886C71.7555 46.6542 71.6959 46.8652 71.5742 47.0117C71.4551 47.1582 71.2888 47.2674 71.0802 47.3369C70.8742 47.4039 70.6284 47.4461 70.3504 47.4586C70.0749 47.4735 69.767 47.4809 69.4394 47.4809ZM68.3049 47.4238H69.4394C69.767 47.4238 70.0724 47.4164 70.3479 47.4039C70.621 47.3915 70.8593 47.3493 71.0629 47.2848C71.2615 47.2202 71.4178 47.116 71.532 46.9769C71.6437 46.8404 71.6984 46.6418 71.6984 46.3886C71.6984 45.9665 71.5494 45.6984 71.2416 45.5668C70.9288 45.4353 70.5043 45.3682 69.9756 45.3682H68.3049V47.4238ZM70.0153 44.7128H68.2478V42.6101H69.4145C69.7174 42.6101 69.9979 42.62 70.2462 42.6374C70.4969 42.6548 70.7153 42.6995 70.8965 42.7665C71.0802 42.836 71.2242 42.9403 71.3235 43.0793C71.4253 43.2183 71.4749 43.4095 71.4749 43.6478C71.4749 44.0699 71.3409 44.3578 71.0778 44.5018C70.8221 44.6408 70.4646 44.7128 70.0153 44.7128ZM68.3049 44.6557H70.0153C70.4547 44.6557 70.8022 44.5862 71.0505 44.4497C71.2937 44.3156 71.4179 44.0475 71.4179 43.6478C71.4179 43.4219 71.3707 43.2407 71.2764 43.1141C71.182 42.985 71.0455 42.8857 70.8742 42.8211C70.698 42.7541 70.4845 42.7119 70.2412 42.6945C69.9929 42.6771 69.7149 42.6672 69.4145 42.6672H68.3074V44.6557H68.3049Z" fill="#323332"/>
<path d="M78.5999 44.1242C78.5999 43.5855 78.4584 43.1808 78.1729 42.9152C77.8874 42.6496 77.4729 42.518 76.9292 42.518C76.5544 42.518 76.2068 42.585 75.8866 42.7191C75.5664 42.8532 75.2933 43.0319 75.0699 43.2553L74.561 42.6545C74.8192 42.3964 75.1617 42.1829 75.5838 42.0116C76.0082 41.8427 76.4873 41.7583 77.0211 41.7583C77.3587 41.7583 77.6764 41.8055 77.9718 41.8998C78.2672 41.9942 78.5254 42.1332 78.7488 42.3219C78.9722 42.5081 79.146 42.7464 79.2701 43.0319C79.3943 43.3174 79.4563 43.6525 79.4563 44.0349V46.7781C79.4563 47.0189 79.4662 47.2696 79.4836 47.5278C79.501 47.786 79.5283 48.0045 79.5631 48.1832H78.7463C78.719 48.0318 78.6967 47.8679 78.6793 47.6892C78.6619 47.5104 78.652 47.3367 78.652 47.1678H78.6247C78.3392 47.5874 78.0165 47.8878 77.6541 48.0715C77.2941 48.2552 76.8572 48.3446 76.3508 48.3446C76.11 48.3446 75.8618 48.3098 75.6086 48.2428C75.3554 48.1758 75.122 48.0665 74.9135 47.9151C74.705 47.7637 74.5312 47.5651 74.3922 47.3242C74.2532 47.0834 74.1862 46.788 74.1862 46.438C74.1862 45.9539 74.3078 45.5716 74.5536 45.291C74.7993 45.0105 75.127 44.7995 75.5366 44.6605C75.9462 44.5214 76.4178 44.4321 76.9466 44.3923C77.4778 44.3526 78.0289 44.3328 78.5974 44.3328V44.1242H78.5999ZM78.3318 45.0453C77.9569 45.0453 77.5796 45.0601 77.2023 45.0924C76.8225 45.1247 76.4799 45.1868 76.1721 45.2786C75.8643 45.373 75.6135 45.507 75.4174 45.6858C75.2213 45.8645 75.122 46.1003 75.122 46.3958C75.122 46.6192 75.1642 46.8054 75.2486 46.9568C75.333 47.1083 75.4472 47.2299 75.5887 47.3242C75.7302 47.4186 75.8891 47.4856 76.0629 47.5253C76.2366 47.5651 76.4129 47.5849 76.5916 47.5849C76.9118 47.5849 77.1973 47.5303 77.448 47.4186C77.6988 47.3069 77.9073 47.1554 78.0761 46.9643C78.2449 46.7731 78.374 46.5522 78.4634 46.3014C78.5527 46.0532 78.5974 45.79 78.5974 45.512V45.0428H78.3318V45.0453Z" fill="#323332"/>
<path d="M76.3544 48.3644C76.1136 48.3644 75.8604 48.3297 75.6047 48.2626C75.349 48.1956 75.1107 48.0839 74.8997 47.93C74.6887 47.776 74.5099 47.575 74.3709 47.3292C74.2319 47.0834 74.1599 46.783 74.1599 46.428C74.1599 45.939 74.2865 45.5467 74.5348 45.2612C74.783 44.9757 75.1181 44.7622 75.5302 44.6232C75.9398 44.4842 76.4189 44.3948 76.9477 44.3526C77.469 44.3129 78.0151 44.293 78.5736 44.293V44.1217C78.5736 43.5929 78.4322 43.1932 78.1541 42.9351C77.8761 42.6769 77.464 42.5453 76.9303 42.5453C76.5604 42.5453 76.2129 42.6123 75.8976 42.7439C75.5823 42.8755 75.3093 43.0542 75.0908 43.2727L75.0685 43.295L74.5224 42.6496L74.5397 42.6322C74.8004 42.3715 75.1479 42.153 75.5724 41.9842C75.9969 41.8154 76.4859 41.7285 77.0221 41.7285C77.3622 41.7285 77.6849 41.7757 77.9804 41.87C78.2758 41.9644 78.5414 42.1084 78.7648 42.297C78.9907 42.4857 79.167 42.729 79.2936 43.017C79.4202 43.305 79.4822 43.6451 79.4822 44.0323V46.7756C79.4822 47.0164 79.4921 47.2671 79.5095 47.5228C79.5269 47.7785 79.5542 47.997 79.589 48.1757L79.5964 48.2105H78.7226L78.7176 48.1857C78.6903 48.0318 78.668 47.8654 78.6506 47.6892C78.6357 47.5303 78.6258 47.3714 78.6233 47.2175C78.3428 47.6196 78.0201 47.9151 77.6676 48.0938C77.3076 48.2701 76.8633 48.3644 76.3544 48.3644ZM78.601 44.3501C78.035 44.3501 77.4814 44.37 76.9502 44.4097C76.4239 44.4494 75.9522 44.5388 75.5451 44.6778C75.1405 44.8144 74.8153 45.0229 74.5745 45.3009C74.3362 45.5765 74.2145 45.9563 74.2145 46.4305C74.2145 46.7731 74.284 47.066 74.4181 47.3019C74.5546 47.5377 74.7259 47.7338 74.932 47.8828C75.138 48.0318 75.3689 48.141 75.6171 48.208C75.8678 48.275 76.1161 48.3073 76.3519 48.3073C76.8533 48.3073 77.2878 48.2155 77.6427 48.0367C77.9977 47.858 78.3204 47.5576 78.601 47.143L78.6084 47.1306H78.6779V47.1604C78.6779 47.3292 78.6878 47.5055 78.7052 47.6792C78.7226 47.8456 78.7425 48.002 78.7673 48.1484H79.5244C79.4921 47.9771 79.4673 47.7661 79.4499 47.5228C79.4326 47.2671 79.4226 47.0139 79.4226 46.7706V44.0274C79.4226 43.65 79.3606 43.3174 79.2389 43.0368C79.1173 42.7563 78.9435 42.523 78.7251 42.3392C78.5066 42.1555 78.2485 42.014 77.958 41.9222C77.6676 41.8303 77.3523 41.7831 77.0172 41.7831C76.4884 41.7831 76.0093 41.8676 75.5898 42.0364C75.1827 42.2002 74.8476 42.4063 74.5943 42.6545L75.066 43.2131C75.2869 42.9996 75.5575 42.8233 75.8678 42.6942C76.1905 42.5602 76.5455 42.4907 76.9228 42.4907C77.4715 42.4907 77.896 42.6272 78.1864 42.8978C78.4768 43.1684 78.6233 43.5805 78.6233 44.1267V44.3551H78.601V44.3501ZM76.5952 47.6147C76.4164 47.6147 76.2352 47.5948 76.0615 47.5526C75.8852 47.5129 75.7214 47.4434 75.5774 47.349C75.4309 47.2522 75.3142 47.1256 75.2274 46.9717C75.1405 46.8178 75.0958 46.6241 75.0958 46.3957C75.0958 46.0954 75.1976 45.8496 75.3987 45.6659C75.5972 45.4846 75.8554 45.3456 76.1657 45.2513C76.4735 45.1569 76.8211 45.0949 77.2009 45.0626C77.5807 45.0303 77.9605 45.0154 78.3329 45.0154H78.6283V45.512C78.6283 45.79 78.5836 46.0581 78.4917 46.3113C78.4024 46.5621 78.2683 46.788 78.0995 46.9816C77.9282 47.1753 77.7123 47.3317 77.4615 47.4434C77.2108 47.5576 76.9179 47.6147 76.5952 47.6147ZM78.3329 45.0725C77.9605 45.0725 77.5832 45.0874 77.2058 45.1197C76.831 45.152 76.486 45.214 76.1831 45.3059C75.8802 45.3978 75.6295 45.5318 75.4384 45.7081C75.2497 45.8794 75.1529 46.1103 75.1529 46.3957C75.1529 46.6142 75.1951 46.7979 75.277 46.9444C75.3589 47.0909 75.4706 47.2125 75.6097 47.3019C75.7487 47.3937 75.9051 47.4583 76.0763 47.498C76.2476 47.5377 76.4239 47.5576 76.5977 47.5576C76.9129 47.5576 77.1984 47.503 77.4417 47.3937C77.6874 47.2845 77.8935 47.1331 78.0598 46.9469C78.2261 46.7582 78.3552 46.5397 78.4421 46.294C78.529 46.0482 78.5736 45.785 78.5736 45.5144V45.075H78.3329V45.0725Z" fill="#323332"/>
<path d="M86.0489 48.175L83.976 43.0113L81.8089 48.175H80.8581L83.6012 41.914H84.403L86.9698 48.175H86.0489Z" fill="#323332"/>
<path d="M87.0159 48.2024H86.0304L86.0229 48.185L83.9749 43.0858L81.8276 48.2024H80.8148L83.5827 41.8868H84.4242L84.4317 41.9041L87.0159 48.2024ZM86.0701 48.1453H86.9315L84.387 41.9439H83.6224L80.9067 48.1453H81.7929L83.9799 42.9344L84.0072 42.9989L86.0701 48.1453Z" fill="#323332"/>
<path d="M89.3015 44.0818H90.853C91.3173 44.0818 91.712 44.1339 92.0371 44.2357C92.3623 44.3375 92.6255 44.4815 92.8265 44.6627C93.0276 44.8464 93.1716 45.0624 93.261 45.3107C93.3503 45.5614 93.395 45.827 93.395 46.1125C93.395 46.398 93.3404 46.6661 93.2337 46.9144C93.1269 47.1651 92.9681 47.3836 92.7595 47.5698C92.551 47.756 92.2904 47.9049 91.9825 48.0117C91.6747 48.1184 91.3148 48.173 90.9052 48.173H88.3905V41.912H89.3015V44.0818ZM90.6917 47.4531C90.9424 47.4531 91.1733 47.4332 91.3868 47.3935C91.6002 47.3538 91.7864 47.2818 91.9428 47.1775C92.0992 47.0733 92.2184 46.9367 92.3028 46.7679C92.3872 46.5966 92.4294 46.3831 92.4294 46.1225C92.4294 45.8618 92.3847 45.6483 92.2953 45.477C92.2059 45.3057 92.0818 45.1716 91.9205 45.0748C91.7591 44.9755 91.5704 44.906 91.352 44.8663C91.1335 44.8266 90.9002 44.8067 90.6495 44.8067H89.299V47.4531H90.6917Z" fill="#323332"/>
<path d="M90.9086 48.2026H88.3641V41.8845H89.3298V44.0518H90.8515C91.3157 44.0518 91.7154 44.1039 92.043 44.2057C92.3707 44.31 92.6388 44.4565 92.8424 44.6402C93.0459 44.8239 93.1949 45.0473 93.2842 45.3005C93.3736 45.5537 93.4208 45.8268 93.4208 46.1123C93.4208 46.4003 93.3662 46.6734 93.2569 46.9266C93.1502 47.1798 92.9864 47.4033 92.7754 47.5919C92.5643 47.7806 92.2987 47.932 91.9909 48.0388C91.6856 48.148 91.3182 48.2026 90.9086 48.2026ZM88.4212 48.1455H90.9061C91.3107 48.1455 91.6707 48.0909 91.9735 47.9867C92.2764 47.8824 92.5346 47.7359 92.7406 47.5522C92.9466 47.3685 93.103 47.1525 93.2073 46.9067C93.3116 46.661 93.3662 46.3953 93.3662 46.1148C93.3662 45.8343 93.3215 45.5686 93.2346 45.3229C93.1477 45.0796 93.0037 44.8636 92.8076 44.6848C92.6115 44.5061 92.3484 44.3646 92.0281 44.2628C91.7054 44.161 91.3107 44.1114 90.854 44.1114H89.2727V41.9441H88.4212V48.1455ZM90.6951 47.4802H89.2751V44.7742H90.6554C90.9061 44.7742 91.1444 44.7941 91.3629 44.8363C91.5838 44.876 91.7774 44.948 91.9413 45.0473C92.1051 45.1491 92.2342 45.2881 92.326 45.4619C92.4179 45.6357 92.4626 45.8566 92.4626 46.1198C92.4626 46.3829 92.4179 46.6039 92.3335 46.7776C92.2466 46.9514 92.1225 47.0929 91.9636 47.1997C91.8047 47.304 91.6161 47.3784 91.3976 47.4181C91.1792 47.4604 90.9458 47.4802 90.6951 47.4802ZM90.6951 47.4231C90.9433 47.4231 91.1742 47.4033 91.3852 47.3635C91.5937 47.3238 91.7774 47.2543 91.9288 47.1525C92.0803 47.0532 92.197 46.9192 92.2789 46.7528C92.3608 46.5865 92.403 46.3755 92.403 46.1198C92.403 45.8665 92.3583 45.653 92.2714 45.4867C92.1845 45.3229 92.0629 45.1888 91.9065 45.0945C91.7501 44.9977 91.5614 44.9306 91.348 44.8909C91.132 44.8512 90.8962 44.8313 90.6504 44.8313H89.3273V47.4231H90.6951Z" fill="#323332"/>
<path d="M96.1248 48.1761H95.2163V41.9151H96.1248V44.4424H99.697V41.9151H100.606V48.1761H99.697V45.207H96.1248V48.1761Z" fill="#323332"/>
<path d="M100.634 48.2033H99.6681V45.2342H96.1555V48.2033H95.1899V41.8852H96.1555V44.4125H99.6681V41.8852H100.634V48.2033ZM99.7228 48.1462H100.574V41.9448H99.7228V44.472H96.0935V41.9448H95.242V48.1462H96.0935V45.1771H99.7228V48.1462Z" fill="#323332"/>
<path d="M103.811 44.0825H105.094C105.558 44.0825 105.951 44.1346 106.271 44.2364C106.591 44.3382 106.849 44.4822 107.048 44.6634C107.244 44.8471 107.386 45.0631 107.475 45.3113C107.564 45.5621 107.609 45.8277 107.609 46.1132C107.609 46.3987 107.557 46.6668 107.455 46.9151C107.353 47.1658 107.199 47.3843 106.993 47.5705C106.787 47.7567 106.532 47.9056 106.224 48.0124C105.916 48.1191 105.556 48.1737 105.146 48.1737H102.9V41.9127H103.811V44.0825ZM103.811 47.4538H104.935C105.186 47.4538 105.417 47.4339 105.63 47.3942C105.844 47.3545 106.025 47.2825 106.172 47.1782C106.318 47.074 106.435 46.9374 106.519 46.7686C106.604 46.5973 106.646 46.3838 106.646 46.1231C106.646 45.8625 106.601 45.649 106.512 45.4777C106.422 45.3064 106.301 45.1723 106.144 45.0755C105.988 44.9762 105.804 44.9067 105.588 44.867C105.375 44.8272 105.141 44.8074 104.893 44.8074H103.811V47.4538ZM109.334 41.9152V48.1762H108.426V41.9152H109.334Z" fill="#323332"/>
<path d="M109.365 48.2033H108.399V41.8852H109.365V48.2033ZM108.454 48.1462H109.305V41.9448H108.454V48.1462ZM105.15 48.2033H102.873V41.8852H103.839V44.0525H105.095C105.559 44.0525 105.959 44.1046 106.282 44.2064C106.605 44.3107 106.87 44.4571 107.069 44.6408C107.267 44.827 107.414 45.048 107.503 45.3012C107.592 45.5544 107.64 45.8275 107.64 46.113C107.64 46.401 107.588 46.6741 107.483 46.9273C107.379 47.1805 107.223 47.4039 107.014 47.5926C106.806 47.7813 106.545 47.9327 106.235 48.0395C105.927 48.1487 105.562 48.2033 105.15 48.2033ZM102.931 48.1462H105.15C105.554 48.1462 105.914 48.0916 106.217 47.9873C106.52 47.8831 106.776 47.7366 106.977 47.5529C107.178 47.3692 107.332 47.1532 107.431 46.9074C107.533 46.6617 107.583 46.396 107.583 46.1155C107.583 45.835 107.538 45.5693 107.451 45.3236C107.364 45.0803 107.223 44.8643 107.031 44.6855C106.84 44.5068 106.582 44.3653 106.267 44.2635C105.949 44.1617 105.557 44.1121 105.098 44.1121H103.784V41.9448H102.933V48.1462H102.931ZM104.936 47.4809H103.784V44.7749H104.897C105.147 44.7749 105.383 44.7948 105.597 44.837C105.813 44.8767 106.004 44.9487 106.163 45.0505C106.322 45.1523 106.451 45.2913 106.54 45.4651C106.632 45.6388 106.676 45.8598 106.676 46.1229C106.676 46.3861 106.632 46.607 106.547 46.7808C106.461 46.9546 106.341 47.0961 106.19 47.2029C106.041 47.3071 105.855 47.3816 105.636 47.4238C105.423 47.461 105.187 47.4809 104.936 47.4809ZM104.936 47.4238C105.185 47.4238 105.415 47.4039 105.626 47.3642C105.835 47.3245 106.014 47.255 106.158 47.1532C106.299 47.0539 106.413 46.9198 106.495 46.7535C106.577 46.5872 106.619 46.3762 106.619 46.1205C106.619 45.8672 106.575 45.6537 106.488 45.4874C106.401 45.3236 106.282 45.1895 106.13 45.0952C105.979 44.9983 105.795 44.9313 105.584 44.8916C105.373 44.8519 105.14 44.832 104.894 44.832H103.839V47.4238H104.936Z" fill="#323332"/>
<path d="M116.416 43.0789L112.578 48.1756H111.642V41.9145H112.578V46.8226L116.416 41.9145H117.352V48.1756H116.416V43.0789ZM112.508 39.0646C112.58 39.2706 112.672 39.4717 112.782 39.6653C112.893 39.8615 113.032 40.0328 113.196 40.1792C113.36 40.3257 113.556 40.4449 113.777 40.5342C114 40.6236 114.259 40.6683 114.554 40.6683C114.857 40.6683 115.125 40.6162 115.356 40.5144C115.587 40.4126 115.785 40.2835 115.952 40.1271C116.115 39.9707 116.249 39.7994 116.354 39.6132C116.456 39.427 116.537 39.2433 116.602 39.0646L115.947 38.7691C115.823 39.1092 115.656 39.3898 115.453 39.6107C115.247 39.8342 114.949 39.9459 114.556 39.9459C114.182 39.9459 113.889 39.8416 113.673 39.6306C113.459 39.422 113.29 39.1341 113.164 38.7667L112.508 39.0646Z" fill="#323332"/>
<path d="M117.378 48.2029H116.385V43.1633L112.589 48.2029H111.611V41.8848H112.604V46.7382L116.399 41.8848H117.378V48.2029ZM116.442 48.1458H117.32V41.9444H116.427L112.544 46.907V41.9444H111.666V48.1458H112.559L116.442 42.992V48.1458ZM114.555 40.6982C114.257 40.6982 113.994 40.6535 113.768 40.5616C113.545 40.4723 113.346 40.3506 113.177 40.2017C113.011 40.0527 112.869 39.8764 112.758 39.6803C112.646 39.4842 112.554 39.2806 112.482 39.0746L112.475 39.0497L113.182 38.732L113.192 38.7618C113.314 39.1217 113.483 39.4072 113.694 39.6133C113.9 39.8169 114.19 39.9186 114.558 39.9186C114.94 39.9186 115.235 39.8094 115.431 39.5934C115.632 39.375 115.796 39.0944 115.92 38.7593L115.93 38.7295L116.638 39.0473L116.63 39.0721C116.568 39.2508 116.484 39.437 116.382 39.6257C116.278 39.8144 116.141 39.9906 115.975 40.147C115.809 40.3059 115.605 40.4375 115.372 40.5393C115.133 40.646 114.86 40.6982 114.555 40.6982ZM112.544 39.082C112.614 39.2757 112.701 39.4693 112.807 39.6555C112.917 39.8466 113.053 40.0179 113.217 40.1644C113.378 40.3084 113.572 40.4276 113.79 40.5145C114.009 40.6013 114.267 40.646 114.555 40.646C114.853 40.646 115.119 40.5939 115.347 40.4946C115.575 40.3953 115.771 40.2662 115.933 40.1123C116.094 39.9584 116.228 39.7871 116.327 39.6034C116.424 39.4271 116.504 39.2508 116.563 39.0845L115.96 38.8139C115.836 39.1416 115.67 39.4196 115.471 39.6381C115.26 39.8665 114.952 39.9807 114.555 39.9807C114.175 39.9807 113.87 39.8715 113.651 39.658C113.44 39.4519 113.272 39.1689 113.148 38.8139L112.544 39.082Z" fill="#323332"/>
<path d="M122.991 48.1761V41.9151H123.899V47.3594H127.256V41.9151H128.164V47.3594H129.207V50.0356H128.298V48.1761H122.991Z" fill="#323332"/>
<path d="M129.24 50.0628H128.274V48.2033H122.965V41.8852H123.93V47.3295H127.229V41.8852H128.195V47.3295H129.238V50.0628H129.24ZM128.331 50.0057H129.183V47.389H128.14V41.9448H127.289V47.389H123.876V41.9448H123.024V48.1462H128.334V50.0057H128.331Z" fill="#323332"/>
<path d="M136.379 44.8567C136.379 44.9188 136.379 44.9858 136.379 45.0578C136.379 45.1298 136.375 45.2043 136.367 45.2862H131.176C131.186 45.599 131.248 45.892 131.363 46.17C131.479 46.4456 131.638 46.6864 131.844 46.8924C132.05 47.0985 132.291 47.2599 132.567 47.3815C132.842 47.5031 133.142 47.5627 133.463 47.5627C133.934 47.5627 134.344 47.4535 134.686 47.235C135.029 47.0166 135.29 46.7658 135.468 46.4803L136.151 47.0141C135.776 47.4858 135.364 47.8259 134.915 48.0294C134.466 48.2355 133.981 48.3373 133.463 48.3373C132.998 48.3373 132.569 48.2554 132.172 48.089C131.775 47.9252 131.435 47.6943 131.149 47.4014C130.864 47.1059 130.638 46.7584 130.474 46.3587C130.308 45.9565 130.226 45.5196 130.226 45.0479C130.226 44.5762 130.305 44.1393 130.466 43.7371C130.628 43.3349 130.849 42.9874 131.134 42.6944C131.42 42.399 131.755 42.1706 132.137 42.0068C132.519 41.8429 132.934 41.7585 133.381 41.7585C133.87 41.7585 134.304 41.8404 134.679 42.0068C135.054 42.1731 135.367 42.394 135.615 42.6746C135.863 42.9551 136.054 43.2828 136.183 43.6577C136.315 44.0276 136.379 44.4297 136.379 44.8567ZM135.456 44.5638C135.429 43.9754 135.24 43.4864 134.888 43.0991C134.535 42.7118 134.034 42.5182 133.383 42.5182C133.08 42.5182 132.8 42.5728 132.542 42.6845C132.284 42.7962 132.055 42.9476 131.859 43.1388C131.663 43.33 131.507 43.5484 131.39 43.7942C131.273 44.04 131.206 44.2957 131.189 44.5638H135.456Z" fill="#323332"/>
<path d="M133.464 48.3646C132.999 48.3646 132.56 48.2802 132.163 48.1138C131.766 47.9475 131.416 47.7141 131.13 47.4187C130.845 47.1233 130.614 46.7683 130.45 46.3661C130.284 45.9639 130.199 45.5196 130.199 45.0454C130.199 44.5712 130.281 44.1268 130.443 43.7247C130.604 43.3225 130.83 42.9675 131.118 42.6721C131.403 42.3766 131.746 42.1433 132.131 41.9769C132.515 41.8106 132.937 41.7262 133.387 41.7262C133.878 41.7262 134.32 41.8106 134.695 41.9769C135.072 42.1433 135.39 42.3692 135.641 42.6522C135.891 42.9352 136.085 43.2679 136.214 43.6452C136.343 44.0226 136.41 44.4297 136.41 44.8592V45.0603C136.41 45.1298 136.405 45.2092 136.398 45.2912L136.393 45.3135H131.207C131.219 45.6089 131.282 45.8944 131.391 46.1576C131.505 46.4282 131.664 46.669 131.865 46.8701C132.066 47.0712 132.307 47.2325 132.577 47.3517C132.848 47.4709 133.146 47.5304 133.461 47.5304C133.925 47.5304 134.332 47.4212 134.67 47.2077C135.008 46.9917 135.268 46.741 135.445 46.4604L135.462 46.4331L136.192 47.0066L136.174 47.029C135.8 47.5031 135.38 47.8482 134.926 48.0543C134.474 48.2603 133.982 48.3646 133.464 48.3646ZM133.384 41.7833C132.945 41.7833 132.53 41.8652 132.15 42.0291C131.773 42.1929 131.438 42.4213 131.157 42.7118C130.877 43.0022 130.653 43.3498 130.495 43.747C130.336 44.1417 130.256 44.5811 130.256 45.0479C130.256 45.5146 130.338 45.9515 130.502 46.3487C130.666 46.7459 130.889 47.0935 131.172 47.384C131.453 47.6744 131.795 47.9028 132.185 48.0667C132.577 48.2305 133.007 48.3124 133.466 48.3124C133.977 48.3124 134.462 48.2107 134.906 48.0071C135.343 47.8085 135.75 47.4758 136.115 47.0215L135.479 46.525C135.301 46.8006 135.04 47.0488 134.705 47.2623C134.36 47.4833 133.943 47.595 133.466 47.595C133.143 47.595 132.838 47.5329 132.558 47.4113C132.279 47.2896 132.034 47.1233 131.825 46.9172C131.619 46.7112 131.455 46.4654 131.339 46.1849C131.222 45.9068 131.157 45.6064 131.15 45.2912V45.2614H136.343C136.351 45.1919 136.353 45.1248 136.353 45.0628V44.8617C136.353 44.4396 136.289 44.0375 136.162 43.6676C136.035 43.2977 135.844 42.97 135.598 42.6944C135.353 42.4188 135.04 42.1954 134.673 42.034C134.3 41.8652 133.868 41.7833 133.384 41.7833ZM135.487 44.5911H131.16L131.162 44.5613C131.18 44.2907 131.249 44.03 131.366 43.7818C131.483 43.536 131.641 43.3126 131.84 43.1189C132.039 42.9253 132.27 42.7714 132.53 42.6572C132.791 42.5455 133.079 42.4884 133.384 42.4884C134.04 42.4884 134.553 42.687 134.911 43.0792C135.266 43.4714 135.459 43.968 135.487 44.5613V44.5911ZM131.222 44.534H135.427C135.395 43.968 135.209 43.4913 134.869 43.1164C134.524 42.7366 134.025 42.543 133.384 42.543C133.086 42.543 132.806 42.5976 132.553 42.7068C132.299 42.816 132.071 42.9675 131.88 43.1562C131.686 43.3448 131.532 43.5633 131.418 43.8041C131.306 44.0375 131.242 44.2832 131.222 44.534Z" fill="#323332"/>
<path d="M139.191 48.1761H138.282V41.9151H139.191V44.4424H142.763V41.9151H143.672V48.1761H142.763V45.207H139.191V48.1761Z" fill="#323332"/>
<path d="M143.7 48.2033H142.734V45.2342H139.221V48.2033H138.256V41.8852H139.221V44.4125H142.734V41.8852H143.7V48.2033ZM142.789 48.1462H143.64V41.9448H142.789V44.472H139.159V41.9448H138.308V48.1462H139.159V45.1771H142.789V48.1462Z" fill="#323332"/>
<path d="M144.954 41.914H150.45V42.6762H148.082V48.1726H147.174V42.6762H144.954V41.914Z" fill="#323332"/>
<path d="M147.148 48.2026V42.7063H144.928V41.887H150.484V42.7063H148.116V48.2026H147.148ZM147.202 48.1455H148.054V42.6492H150.422V41.9441H144.983V42.6492H147.202V48.1455Z" fill="#323332"/>
<path d="M152.702 51.3862H151.793V41.9152H152.702V42.9976H152.742C153 42.588 153.345 42.2777 153.779 42.0692C154.211 41.8606 154.651 41.7539 155.097 41.7539C155.589 41.7539 156.031 41.8383 156.428 42.0071C156.825 42.1759 157.163 42.4093 157.443 42.7022C157.724 42.9952 157.942 43.3452 158.099 43.7449C158.255 44.1471 158.332 44.579 158.332 45.0433C158.332 45.5075 158.255 45.9395 158.099 46.3416C157.942 46.7438 157.724 47.0914 157.443 47.3843C157.163 47.6773 156.823 47.9106 156.428 48.0794C156.031 48.2483 155.586 48.3327 155.097 48.3327C154.651 48.3327 154.211 48.2284 153.779 48.0174C153.347 47.8088 153.002 47.506 152.742 47.1137H152.702V51.3862ZM157.369 45.0457C157.369 44.6982 157.314 44.3705 157.207 44.0627C157.101 43.7548 156.947 43.4867 156.746 43.2608C156.545 43.0324 156.296 42.8536 156.003 42.7196C155.708 42.5855 155.375 42.5185 155.001 42.5185C154.653 42.5185 154.333 42.583 154.037 42.7121C153.742 42.8412 153.489 43.02 153.275 43.2459C153.062 43.4743 152.893 43.7399 152.774 44.0478C152.652 44.3556 152.593 44.6883 152.593 45.0433C152.593 45.4008 152.652 45.7309 152.774 46.0388C152.893 46.3466 153.062 46.6122 153.275 46.8357C153.489 47.0591 153.745 47.2354 154.037 47.3645C154.333 47.4936 154.653 47.5581 155.001 47.5581C155.375 47.5581 155.711 47.4936 156.003 47.3645C156.299 47.2354 156.545 47.0566 156.746 46.8282C156.947 46.5998 157.101 46.3342 157.207 46.0264C157.317 45.721 157.369 45.3933 157.369 45.0457Z" fill="#323332"/>
<path d="M152.728 51.4134H151.762V41.8853H152.728V42.9628C152.986 42.5606 153.336 42.2503 153.763 42.0417C154.197 41.8307 154.644 41.724 155.094 41.724C155.585 41.724 156.037 41.8109 156.437 41.9797C156.836 42.151 157.181 42.3868 157.462 42.6822C157.745 42.9777 157.966 43.3327 158.122 43.7348C158.278 44.137 158.358 44.5789 158.358 45.0432C158.358 45.5074 158.278 45.9468 158.122 46.3515C157.966 46.7536 157.742 47.1086 157.462 47.4041C157.179 47.6995 156.834 47.9353 156.437 48.1066C156.037 48.2779 155.585 48.3623 155.094 48.3623C154.647 48.3623 154.197 48.2556 153.763 48.0446C153.334 47.836 152.986 47.5356 152.728 47.1509V51.4134ZM151.819 51.3563H152.671V47.0888H152.755L152.763 47.1012C153.016 47.4885 153.361 47.7889 153.788 47.9949C154.215 48.201 154.654 48.3052 155.094 48.3052C155.578 48.3052 156.022 48.2208 156.414 48.0545C156.806 47.8882 157.144 47.6548 157.422 47.3644C157.698 47.0739 157.916 46.7263 158.072 46.3316C158.226 45.9344 158.306 45.5024 158.306 45.0456C158.306 44.5888 158.229 44.1544 158.072 43.7597C157.919 43.3625 157.7 43.0149 157.422 42.7269C157.147 42.4365 156.806 42.2056 156.414 42.0368C156.022 41.8704 155.578 41.786 155.094 41.786C154.654 41.786 154.215 41.8903 153.788 42.0964C153.363 42.3024 153.018 42.6127 152.763 43.0149L152.755 43.0273H152.671V41.9449H151.819V51.3563ZM155.002 47.5878C154.652 47.5878 154.324 47.5208 154.026 47.3917C153.731 47.2626 153.47 47.0813 153.254 46.8579C153.038 46.6345 152.867 46.3614 152.748 46.0536C152.626 45.7432 152.564 45.4056 152.564 45.0456C152.564 44.6857 152.626 44.348 152.748 44.0377C152.869 43.7274 153.038 43.4543 153.254 43.2259C153.47 42.9975 153.728 42.8138 154.026 42.6847C154.324 42.5532 154.652 42.4886 155.002 42.4886C155.379 42.4886 155.719 42.5581 156.017 42.6922C156.315 42.8262 156.566 43.0124 156.769 43.2408C156.97 43.4692 157.129 43.7423 157.236 44.0526C157.343 44.3605 157.397 44.6956 157.397 45.0456C157.397 45.3957 157.343 45.7283 157.236 46.0387C157.129 46.349 156.97 46.6221 156.769 46.8505C156.566 47.0813 156.312 47.2626 156.017 47.3917C155.719 47.5232 155.379 47.5878 155.002 47.5878ZM155.002 42.5457C154.659 42.5457 154.339 42.6102 154.051 42.7369C153.76 42.8635 153.507 43.0422 153.299 43.2656C153.088 43.4891 152.921 43.7572 152.802 44.0601C152.683 44.3629 152.624 44.6956 152.624 45.0456C152.624 45.3957 152.683 45.7283 152.802 46.0312C152.921 46.3341 153.088 46.5997 153.299 46.8182C153.51 47.0367 153.763 47.2129 154.051 47.3395C154.339 47.4661 154.659 47.5307 155.002 47.5307C155.372 47.5307 155.704 47.4661 155.992 47.3395C156.28 47.2129 156.528 47.0342 156.725 46.8107C156.921 46.5873 157.075 46.3217 157.181 46.0188C157.288 45.7159 157.34 45.3882 157.34 45.0456C157.34 44.703 157.286 44.3753 157.181 44.0725C157.077 43.7696 156.923 43.504 156.725 43.2805C156.528 43.0571 156.28 42.8784 155.992 42.7468C155.704 42.6127 155.369 42.5457 155.002 42.5457Z" fill="#323332"/>
<path d="M131.714 7.18359C137.709 7.18359 142.537 12.0122 142.537 18.0076C142.537 24.0029 137.709 28.8315 131.714 28.8315C125.719 28.8315 120.891 24.0029 120.891 18.0076C120.891 12.0147 125.719 7.18359 131.714 7.18359Z" fill="#2E3C8B"/>
<path d="M33.101 7.10785C39.096 7.10785 43.9243 11.9364 43.9243 17.9318C43.9243 23.9272 39.096 28.7558 33.101 28.7558C27.106 28.7558 22.2777 23.9272 22.2777 17.9318C22.2777 11.9364 27.106 7.10785 33.101 7.10785ZM33.101 27.09C38.18 27.09 42.2586 23.0111 42.2586 17.9318C42.2586 12.8525 38.1775 8.77365 33.101 8.77365C28.022 8.77365 23.9409 12.8525 23.9409 17.9318C23.9409 23.0111 28.022 27.09 33.101 27.09Z" fill="#323332"/>
<path d="M33.0996 28.7855C30.1927 28.7855 27.4646 27.6584 25.419 25.6128C23.3735 23.5671 22.2465 20.8388 22.2465 17.9317C22.2465 15.0246 23.3735 12.2963 25.419 10.2507C27.4646 8.20504 30.1902 7.07796 33.0996 7.07796C36.0065 7.07796 38.7347 8.20504 40.7802 10.2507C42.8257 12.2963 43.9527 15.0246 43.9527 17.9317C43.9527 20.8388 42.8257 23.5671 40.7802 25.6128C38.7322 27.6584 36.0065 28.7855 33.0996 28.7855ZM33.0996 7.13754C30.2076 7.13754 27.4943 8.25717 25.4612 10.2929C23.4282 12.3286 22.3036 15.0395 22.3036 17.9317C22.3036 20.8239 23.4232 23.5373 25.4588 25.5705C27.4943 27.6062 30.2051 28.7259 33.0971 28.7259C35.9892 28.7259 38.6999 27.6062 40.7355 25.5705C42.7711 23.5348 43.8907 20.8239 43.8907 17.9317C43.8907 15.0395 42.7711 12.3261 40.7355 10.2929C38.7024 8.25717 35.9892 7.13754 33.0996 7.13754ZM33.0996 27.1197C30.6346 27.1197 28.326 26.1664 26.5957 24.436C24.8655 22.7057 23.9122 20.3944 23.9122 17.9317C23.9122 15.469 24.8655 13.1577 26.5957 11.4274C28.326 9.69706 30.6371 8.74375 33.0996 8.74375C35.5647 8.74375 37.8733 9.69706 39.6035 11.4274C41.3338 13.1577 42.287 15.469 42.287 17.9317C42.287 20.3969 41.3338 22.7057 39.6035 24.436C37.8733 26.1664 35.5622 27.1197 33.0996 27.1197ZM33.0996 8.80334C30.652 8.80334 28.3557 9.74919 26.6354 11.4696C24.9151 13.19 23.9693 15.4839 23.9693 17.9317C23.9693 20.3795 24.9151 22.6759 26.6354 24.3938C28.3557 26.1142 30.6495 27.0601 33.0996 27.0601C35.5473 27.0601 37.8435 26.1142 39.5613 24.3938C41.2817 22.6734 42.2275 20.3795 42.2275 17.9317C42.2275 15.4839 41.2792 13.1875 39.5613 11.4696C37.841 9.74919 35.5473 8.80334 33.0996 8.80334Z" fill="#323332"/>
<path d="M68.4958 7.0299V28.8243H66.7531V8.68577H51.0618V28.8243H49.3191V7.0299H68.4958Z" fill="#323332"/>
<path d="M68.5267 28.854H66.7244V8.71545H51.0902V28.854H49.288V7H68.5242V28.854H68.5267ZM66.7815 28.7944H68.4671V7.05958H49.3476V28.7969H51.0331V8.65587H66.784V28.7944H66.7815Z" fill="#323332"/>
<path d="M76.8703 28.8243H75.1276V7.0299H76.8703V24.4649L92.5616 9.20959V7.0299H94.3043V28.8243H92.5616V11.3893L76.8703 26.6471V28.8243Z" fill="#323332"/>
<path d="M94.3352 28.854H92.5329V11.4587L76.8987 26.6594V28.8565H75.0965V7H76.8987V24.3953L92.5329 9.19458V7H94.3352V28.854ZM92.5925 28.7944H94.2781V7.05958H92.5925V9.22189L92.5826 9.22934L76.8416 24.5343V7.05958H75.1561V28.7969H76.8416V26.6346L76.8515 26.6271L92.5925 11.3221V28.7944Z" fill="#323332"/>
<path d="M149.223 9.64404V28.8243H147.48V7.0299H149.223L161.429 21.9377L173.635 7.0299H175.377V28.8243H173.635V9.64404L161.429 24.5518L149.223 9.64404Z" fill="#323332"/>
<path d="M175.406 28.854H173.604V9.72585L161.427 24.5989L149.251 9.72833V28.8565H147.449V7H149.236L149.246 7.00993L161.427 21.8904L173.618 7H175.406V28.854ZM175.349 28.7944V7.05958H173.648L161.43 21.9847L149.209 7.05958H147.508V28.7969H149.194V9.562L161.427 24.5045L173.661 9.562V28.7944H175.349Z" fill="#323332"/>
<path d="M2.62101 7.03983H4.85767V28.8243H2.62101V7.03983ZM6.04178 17.6528L16.0409 7.03983L17.7588 7.0299L8.45964 17.0172L19.7869 28.8268H16.8303L6.04178 17.6528Z" fill="#323332"/>
<path d="M19.855 28.854H16.8165L5.99819 17.6527L6.01805 17.6328L16.0247 7.00993L17.8244 7L8.50046 17.0146L19.855 28.854ZM16.8414 28.7944H19.7185L8.41855 17.0171L8.4384 16.9973L17.6879 7.05958L16.0495 7.06951L6.08011 17.6527L16.8414 28.7944ZM4.88359 28.854H2.58984V7.00993H4.88359V28.854ZM2.64942 28.7944H4.8265V7.06951H2.64942V28.7944Z" fill="#323332"/>
<path d="M101.083 7.03983H103.319V28.8243H101.083V7.03983ZM104.504 17.6528L114.503 7.03983L116.221 7.0299L106.924 17.0172L118.251 28.8268H115.292L104.504 17.6528Z" fill="#323332"/>
<path d="M118.317 28.8542H115.276L104.46 17.6529L104.48 17.633L114.487 7.01263L116.286 7.00022L106.962 17.0149L118.317 28.8542ZM115.301 28.7946H118.18L106.881 17.0149L106.9 16.995L116.152 7.05731L114.514 7.06724L104.542 17.6529L115.301 28.7946ZM103.346 28.8542H101.052V7.01015H103.346V28.8542ZM101.109 28.7946H103.286V7.06973H101.109V28.7946Z" fill="#323332"/>
</svg>
