<svg width="20" height="21" viewBox="0 0 20 21" fill="none" xmlns="http://www.w3.org/2000/svg">
<path fill-rule="evenodd" clip-rule="evenodd" d="M10 19.6663C10 19.6663 17.5 14.6663 17.5 8.83301C17.5 6.84388 16.7098 4.93623 15.3033 3.52971C13.8968 2.12318 11.9891 1.33301 10 1.33301C8.01088 1.33301 6.10322 2.12318 4.6967 3.52971C3.29018 4.93623 2.5 6.84388 2.5 8.83301C2.5 14.6663 10 19.6663 10 19.6663ZM12.5 8.83301C12.5 10.2137 11.3807 11.333 10 11.333C8.61929 11.333 7.5 10.2137 7.5 8.83301C7.5 7.4523 8.61929 6.33301 10 6.33301C11.3807 6.33301 12.5 7.4523 12.5 8.83301Z" fill="#141D38"/>
</svg>
